<svg width="34" height="34" viewBox="0 0 34 34" fill="none" xmlns="http://www.w3.org/2000/svg">
<mask id="mask0_1743_17866" style="mask-type:alpha" maskUnits="userSpaceOnUse" x="0" y="0" width="34" height="34">
<circle cx="17" cy="17" r="17" fill="#D9D9D9"/>
</mask>
<g mask="url(#mask0_1743_17866)">
<rect x="-12" width="57.0714" height="34" rx="10" fill="white"/>
<g clip-path="url(#clip0_1743_17866)">
<path d="M8.0332 16.516V15.6828H12.2219V16.516H8.0332ZM8.07415 14.5206C8.3274 14.3954 8.55477 14.2569 8.75521 14.104C8.95565 13.9511 9.13238 13.7861 9.28433 13.6099C9.43304 13.4359 9.54727 13.2509 9.62917 13.0526C9.70999 12.8543 9.75525 12.646 9.76603 12.4277H10.7133C10.7068 12.574 10.6917 12.7136 10.668 12.8499C10.6443 12.985 10.6109 13.1158 10.5667 13.241C10.7186 13.3307 10.8652 13.4227 11.0075 13.5146C11.1497 13.6066 11.2822 13.7007 11.4073 13.7982C11.529 13.9024 11.6551 14.0154 11.7866 14.1373C11.918 14.2591 12.0538 14.3921 12.1918 14.5383L11.5937 15.2363C11.4751 15.1012 11.3544 14.9726 11.2294 14.8508C11.1044 14.7289 10.9762 14.6126 10.8447 14.5018C10.723 14.4154 10.6044 14.3312 10.488 14.2514C10.3717 14.1716 10.2542 14.0974 10.1357 14.0276L10.0753 14.1062C9.97724 14.2281 9.87271 14.3433 9.76172 14.453C9.65072 14.5627 9.53218 14.6635 9.40718 14.7577C9.27571 14.8585 9.141 14.9494 9.00415 15.0314C8.86729 15.1133 8.72827 15.1865 8.58603 15.2529L8.07415 14.5206Z" fill="#0059FF"/>
<path d="M13.5109 12.6541V15.6034H14.2437C14.3116 15.6034 14.3784 15.6023 14.4463 15.599C14.5142 15.5956 14.581 15.589 14.6489 15.579C14.7168 15.5757 14.7782 15.5691 14.8343 15.5591C14.8903 15.5491 14.9431 15.5358 14.9905 15.5192V16.2526C14.9452 16.2792 14.8946 16.2992 14.8386 16.3147C14.7825 16.3291 14.72 16.3402 14.6532 16.3468C14.5789 16.3568 14.5067 16.3634 14.4366 16.3668C14.3655 16.3701 14.2954 16.3712 14.2243 16.3712H12.6187V12.6541H13.5109ZM16.7546 13.9127V14.7702C16.7352 14.7702 16.7147 14.7702 16.6921 14.7725C16.6695 14.7747 16.6457 14.7769 16.6199 14.7802C16.594 14.7802 16.5682 14.7824 16.5423 14.7846C16.5164 14.788 16.4895 14.7891 16.4604 14.7891C16.4054 14.799 16.3537 14.809 16.3041 14.819C16.2546 14.829 16.2072 14.8389 16.1619 14.8489V16.5784H15.2696V12.5898H16.1619V14.0025C16.2072 13.9892 16.2546 13.977 16.3041 13.9648C16.3537 13.9537 16.4076 13.9426 16.4658 13.9327C16.4949 13.9327 16.5229 13.9315 16.5498 13.9282C16.5768 13.9249 16.6016 13.9238 16.6242 13.9238C16.6501 13.9205 16.6727 13.9182 16.6942 13.916C16.7147 13.9149 16.7352 13.9138 16.7546 13.9138V13.9127Z" fill="#333333"/>
<path d="M18.4541 12.5922C18.536 12.6099 18.6157 12.6365 18.6922 12.6686C18.7634 12.7085 18.8291 12.7561 18.8895 12.8126C18.9509 12.8691 19.008 12.9345 19.0629 13.0109C19.1114 13.0907 19.1567 13.1805 19.1977 13.2813C19.2397 13.3821 19.2752 13.4918 19.3033 13.6103C19.3291 13.7355 19.3496 13.8729 19.3636 14.0214C19.3776 14.1698 19.3852 14.3305 19.3852 14.5022C19.3852 14.6739 19.3776 14.8446 19.3636 14.9952C19.3496 15.1459 19.3291 15.28 19.3033 15.3996C19.2742 15.5248 19.2386 15.6378 19.1977 15.7364C19.1556 15.8351 19.1104 15.9237 19.0629 15.999C19.008 16.0788 18.9509 16.1464 18.8895 16.2018C18.828 16.2583 18.7623 16.3026 18.6922 16.3358C18.6157 16.3724 18.536 16.399 18.4541 16.4156C18.3722 16.4322 18.286 16.44 18.1965 16.44C18.1006 16.44 18.0112 16.4322 17.9293 16.4156C17.8474 16.399 17.7709 16.3724 17.7008 16.3358C17.6232 16.3026 17.5543 16.2583 17.4907 16.2018C17.4282 16.1453 17.3722 16.0777 17.3247 15.999C17.2698 15.9226 17.2234 15.8351 17.1846 15.7364C17.1459 15.6378 17.1135 15.5248 17.0887 15.3996C17.0596 15.2811 17.0392 15.1459 17.0262 14.9952C17.0133 14.8446 17.0068 14.6806 17.0068 14.5022C17.0068 14.3238 17.0133 14.1698 17.0262 14.0214C17.0392 13.8729 17.0596 13.7355 17.0887 13.6103C17.1146 13.4918 17.1469 13.3821 17.1846 13.2813C17.2234 13.1805 17.2698 13.0907 17.3247 13.0109C17.3732 12.9345 17.4282 12.8691 17.4907 12.8126C17.5532 12.7561 17.6232 12.7085 17.7008 12.6686C17.772 12.6354 17.8474 12.6099 17.9293 12.5922C18.0112 12.5744 18.1006 12.5645 18.1965 12.5645C18.286 12.5645 18.3722 12.5733 18.4541 12.5922ZM18.1211 13.3954C18.0974 13.4032 18.0758 13.4131 18.0564 13.4231C18.0306 13.4397 18.008 13.4608 17.9886 13.4851C17.9692 13.5095 17.9519 13.5416 17.9358 13.5815C17.9164 13.6214 17.9013 13.6702 17.8905 13.7278C17.8797 13.7854 17.8689 13.8496 17.8592 13.9183C17.8463 13.9948 17.8377 14.0812 17.8323 14.1787C17.828 14.2762 17.8248 14.3848 17.8248 14.5033C17.8248 14.6285 17.8269 14.7404 17.8323 14.8379C17.8366 14.9354 17.8463 15.0185 17.8592 15.0883C17.8689 15.1648 17.8797 15.2301 17.8905 15.2866C17.9013 15.3431 17.9174 15.3908 17.9358 15.4307C17.9519 15.4705 17.9692 15.5038 17.9886 15.5293C18.008 15.5559 18.0306 15.5736 18.0564 15.5836C18.0758 15.6002 18.0974 15.6113 18.1211 15.6157C18.1448 15.6201 18.1696 15.6234 18.1955 15.6234C18.2149 15.6234 18.2353 15.6212 18.258 15.6157C18.2806 15.6113 18.3043 15.6002 18.3302 15.5836C18.3496 15.5736 18.37 15.5559 18.3905 15.5293C18.411 15.5027 18.4315 15.4694 18.4509 15.4307C18.4638 15.3908 18.4778 15.3431 18.4918 15.2866C18.5058 15.2301 18.5198 15.1648 18.5328 15.0883C18.5425 15.0185 18.55 14.9354 18.5565 14.8379C18.5629 14.7404 18.5662 14.6285 18.5662 14.5033C18.5662 14.3848 18.5629 14.2762 18.5565 14.1787C18.55 14.0812 18.5425 13.9948 18.5328 13.9183C18.5198 13.8485 18.5058 13.7854 18.4918 13.7278C18.4778 13.6702 18.4638 13.6214 18.4509 13.5815C18.4315 13.5416 18.411 13.5095 18.3905 13.4851C18.37 13.4608 18.3496 13.4397 18.3302 13.4231C18.3043 13.4131 18.2806 13.4043 18.258 13.3954C18.2353 13.3876 18.2149 13.3832 18.1955 13.3832C18.1696 13.3832 18.1448 13.3876 18.1211 13.3954ZM19.7526 16.5796V12.5899H20.6449V16.5796H19.7526Z" fill="#333333"/>
<path d="M21.3914 13.3731H21.1748V12.6297H23.4939V13.3731H23.2245V15.6233H23.4939V16.3668H21.1748V15.6233H21.3914V13.3731ZM22.4518 15.6233V13.3731H22.163V15.6233H22.4518ZM24.0187 14.7957C23.9928 14.8057 23.9637 14.8123 23.9292 14.8157C23.8958 14.819 23.8581 14.8201 23.8161 14.8201C23.7676 14.8234 23.7202 14.8245 23.6738 14.8245H23.4637V14.0313H24.0176V12.5898H24.8614V16.585H24.0176V14.7957H24.0187Z" fill="#333333"/>
<path d="M8.32717 17.9974H8.13428V17.2938H10.1602V17.9974H9.96301V18.9291H10.1602V19.6316H8.13428V18.9291H8.32717V17.9974ZM11.4469 21.4763V20.7783H8.43278V19.9451H12.3327V21.4763H11.4469ZM9.27441 18.9291V17.9974H9.01578V18.9291H9.27441ZM11.5482 18.8615C11.504 18.8715 11.4588 18.8793 11.4113 18.8848C11.3639 18.8904 11.3154 18.8926 11.2648 18.8926V19.7623H10.4792V17.2783H11.2648V18.0749H11.5482V17.2783H12.3338V19.7623H11.5482V18.8615Z" fill="#0059FF"/>
<path d="M15.6123 19.47C15.7017 19.47 15.789 19.47 15.8731 19.4678C15.9571 19.4667 16.0369 19.4623 16.1145 19.4556C16.1856 19.4556 16.2535 19.4512 16.3192 19.4435C16.3849 19.4357 16.4474 19.4257 16.5046 19.4158V20.1248C16.4593 20.1414 16.4076 20.1558 16.3483 20.1669C16.289 20.178 16.2222 20.1858 16.1479 20.1891C16.0703 20.1991 15.9895 20.2057 15.9043 20.209C15.8192 20.2124 15.7319 20.2135 15.6414 20.2135H15.1155V20.6699H16.6727V21.4133H12.6865V20.6699H14.2437V20.2135H12.9225V17.4824H16.4313V18.2258H13.7415V18.474H16.3828V19.2174H13.7415V19.47H15.6123Z" fill="#333333"/>
<path d="M17.1109 18.9892H18.4655V18.2901H17.1346V17.5223H19.2845V19.7326H17.9299V20.4904H19.4192V21.2582H17.1099V18.9881L17.1109 18.9892ZM19.7619 21.4721V17.4824H20.6542V21.4721H19.7619Z" fill="#333333"/>
<path d="M22.9138 18.3456V17.9844C22.2015 18.0664 21.6315 18.6414 21.5366 19.3693H21.889C21.9784 18.8386 22.3933 18.422 22.9138 18.3456Z" fill="#0059FF"/>
<path d="M24.287 19.3703H24.6394C24.5446 18.6424 23.9745 18.0673 23.2622 17.9854V18.3465C23.7827 18.4241 24.1976 18.8407 24.287 19.3703Z" fill="#0059FF"/>
<path d="M21.8785 19.7285H21.5283C21.5941 20.4897 22.1771 21.1001 22.9131 21.1843V20.8231C22.3699 20.7423 21.9411 20.2913 21.8785 19.7285Z" fill="#0059FF"/>
<path d="M23.2622 20.8231V21.1843C23.9982 21.1001 24.5812 20.4897 24.647 19.7285H24.2967C24.2342 20.2925 23.8053 20.7434 23.2622 20.8231Z" fill="#0059FF"/>
<path d="M23.0887 18.8721C22.7051 18.8721 22.3926 19.1934 22.3926 19.5878C22.3926 19.9822 22.7051 20.3035 23.0887 20.3035C23.4724 20.3035 23.7849 19.9822 23.7849 19.5878C23.7849 19.1934 23.4724 18.8721 23.0887 18.8721ZM23.0887 19.9445C22.8969 19.9445 22.7417 19.7839 22.7417 19.5878C22.7417 19.3917 22.898 19.231 23.0887 19.231C23.2795 19.231 23.4357 19.3917 23.4357 19.5878C23.4357 19.7839 23.2795 19.9445 23.0887 19.9445Z" fill="#0059FF"/>
<path d="M23.2622 17.9857V17.783C23.2622 17.6844 23.1846 17.6035 23.0877 17.6035C22.9907 17.6035 22.9131 17.6833 22.9131 17.783V17.9857C22.9702 17.9791 23.0284 17.9758 23.0877 17.9758C23.1469 17.9758 23.2051 17.9791 23.2622 17.9857Z" fill="#0059FF"/>
<path d="M23.0886 18.3334C23.1479 18.3334 23.2061 18.3379 23.2632 18.3467V17.9856C23.2061 17.9789 23.1479 17.9756 23.0886 17.9756C23.0294 17.9756 22.9712 17.9789 22.9141 17.9856V18.3467C22.9712 18.3379 23.0294 18.3334 23.0886 18.3334Z" fill="#0059FF"/>
<path d="M22.9141 21.1846V21.3929C22.9141 21.4915 22.9917 21.5723 23.0886 21.5723C23.1856 21.5723 23.2632 21.4926 23.2632 21.3929V21.1846C23.2061 21.1912 23.1479 21.1945 23.0886 21.1945C23.0294 21.1945 22.9712 21.1912 22.9141 21.1846Z" fill="#0059FF"/>
<path d="M23.0886 20.8365C23.0294 20.8365 22.9712 20.8321 22.9141 20.8232V21.1844C22.9712 21.1911 23.0294 21.1944 23.0886 21.1944C23.1479 21.1944 23.2061 21.1911 23.2632 21.1844V20.8232C23.2061 20.8321 23.1479 20.8365 23.0886 20.8365Z" fill="#0059FF"/>
<path d="M24.8643 19.3702H24.6401C24.6488 19.44 24.6541 19.5121 24.6541 19.5852C24.6541 19.6339 24.652 19.6816 24.6477 19.7281H24.8643C24.9602 19.7281 25.0389 19.6483 25.0389 19.5486C25.0389 19.4489 24.9613 19.3691 24.8643 19.3691V19.3702Z" fill="#0059FF"/>
<path d="M24.639 19.3711H24.2866C24.2985 19.4409 24.3049 19.5129 24.3049 19.586C24.3049 19.6348 24.3017 19.6824 24.2963 19.729H24.6465C24.6509 19.6813 24.653 19.6337 24.653 19.586C24.653 19.5129 24.6476 19.442 24.639 19.3711Z" fill="#0059FF"/>
<path d="M21.5367 19.3711H21.3352C21.2393 19.3711 21.1606 19.4509 21.1606 19.5506C21.1606 19.6503 21.2382 19.7301 21.3352 19.7301H21.5292C21.5249 19.6824 21.5227 19.6348 21.5227 19.5871C21.5227 19.514 21.5281 19.4431 21.5367 19.3722V19.3711Z" fill="#0059FF"/>
<path d="M21.871 19.5841C21.871 19.511 21.8775 19.4389 21.8893 19.3691H21.537C21.5283 19.4389 21.5229 19.511 21.5229 19.5841C21.5229 19.6328 21.5251 19.6805 21.5294 19.727H21.8796C21.8743 19.6794 21.871 19.6317 21.871 19.5841Z" fill="#0059FF"/>
<path d="M23.1544 20.1242C23.4424 20.1242 23.676 19.8841 23.676 19.588C23.676 19.2918 23.4424 19.0518 23.1544 19.0518C22.8663 19.0518 22.6328 19.2918 22.6328 19.588C22.6328 19.8841 22.8663 20.1242 23.1544 20.1242Z" fill="#0059FF"/>
</g>
</g>
<defs>
<clipPath id="clip0_1743_17866">
<rect width="17.005" height="9.14483" fill="white" transform="translate(8.0332 12.4277)"/>
</clipPath>
</defs>
</svg>
