<svg width="10" height="10" viewBox="0 0 10 10" fill="none" xmlns="http://www.w3.org/2000/svg">
<path d="M5 0C5.16576 0 5.32473 0.0658481 5.44194 0.183058C5.55915 0.300269 5.625 0.45924 5.625 0.625V4.375H9.375C9.54076 4.375 9.69973 4.44085 9.81694 4.55806C9.93415 4.67527 10 4.83424 10 5C10 5.16576 9.93415 5.32473 9.81694 5.44194C9.69973 5.55915 9.54076 5.625 9.375 5.625H5.625V9.375C5.625 9.54076 5.55915 9.69973 5.44194 9.81694C5.32473 9.93415 5.16576 10 5 10C4.83424 10 4.67527 9.93415 4.55806 9.81694C4.44085 9.69973 4.375 9.54076 4.375 9.375V5.625H0.625C0.45924 5.625 0.300269 5.55915 0.183058 5.44194C0.0658481 5.32473 0 5.16576 0 5C0 4.83424 0.0658481 4.67527 0.183058 4.55806C0.300269 4.44085 0.45924 4.375 0.625 4.375H4.375V0.625C4.375 0.45924 4.44085 0.300269 4.55806 0.183058C4.67527 0.0658481 4.83424 0 5 0Z" fill="#669BFF"/>
</svg>
