<svg width="16" height="16" viewBox="0 0 16 16" fill="none" xmlns="http://www.w3.org/2000/svg">
<path d="M7.9987 1.33301C4.31203 1.33301 1.33203 4.31301 1.33203 7.99967C1.33203 11.6863 4.31203 14.6663 7.9987 14.6663C11.6854 14.6663 14.6654 11.6863 14.6654 7.99967C14.6654 4.31301 11.6854 1.33301 7.9987 1.33301ZM11.1367 10.195C11.3974 10.4557 11.3974 10.877 11.1367 11.1377C11.0067 11.2677 10.836 11.333 10.6654 11.333C10.4947 11.333 10.324 11.2677 10.194 11.1377L7.9987 8.94234L5.80336 11.1377C5.67336 11.2677 5.5027 11.333 5.33203 11.333C5.16136 11.333 4.9907 11.2677 4.8607 11.1377C4.60003 10.877 4.60003 10.4557 4.8607 10.195L7.05603 7.99967L4.8607 5.80434C4.60003 5.54367 4.60003 5.12234 4.8607 4.86167C5.12136 4.60101 5.5427 4.60101 5.80336 4.86167L7.9987 7.05701L10.194 4.86167C10.4547 4.60101 10.876 4.60101 11.1367 4.86167C11.3974 5.12234 11.3974 5.54367 11.1367 5.80434L8.94136 7.99967L11.1367 10.195Z" fill="#FF4F4F"/>
</svg>
