<svg width="13" height="12" viewBox="0 0 13 12" fill="none" xmlns="http://www.w3.org/2000/svg">
<mask id="mask0_3433_8691" style="mask-type:luminance" maskUnits="userSpaceOnUse" x="1" y="1" width="10" height="10">
<path fill-rule="evenodd" clip-rule="evenodd" d="M1.50024 1.5H10.0905V10.9698H1.50024V1.5Z" fill="white"/>
</mask>
<g mask="url(#mask0_3433_8691)">
<path fill-rule="evenodd" clip-rule="evenodd" d="M7.05538 2.50832L2.34788 8.39582C2.26238 8.50282 2.23088 8.64082 2.26238 8.77332L2.60288 10.2158L4.12238 10.1968C4.26688 10.1953 4.40038 10.1308 4.48888 10.0208C6.09738 8.00832 9.16388 4.17132 9.25088 4.05882C9.33288 3.92582 9.36488 3.73782 9.32188 3.55682C9.27788 3.37132 9.16238 3.21382 8.99588 3.11332C8.96038 3.08882 8.11788 2.43482 8.09188 2.41432C7.77488 2.16032 7.31238 2.20432 7.05538 2.50832ZM2.30688 10.9698C2.13338 10.9698 1.98238 10.8508 1.94188 10.6813L1.53238 8.94582C1.44788 8.58632 1.53188 8.21532 1.76238 7.92732L6.47238 2.03632C6.47438 2.03432 6.47588 2.03182 6.47788 2.02982C6.99438 1.41232 7.92838 1.32132 8.55838 1.82682C8.58338 1.84632 9.41988 2.49632 9.41988 2.49632C9.72388 2.67732 9.96138 3.00082 10.0514 3.38382C10.1409 3.76282 10.0759 4.15382 9.86738 4.48432C9.85188 4.50882 9.83838 4.52982 5.07438 10.4898C4.84488 10.7758 4.50088 10.9423 4.13138 10.9468L2.31188 10.9698H2.30688Z" fill="#669BFF"/>
</g>
<path fill-rule="evenodd" clip-rule="evenodd" d="M8.61171 5.84268C8.53171 5.84268 8.45171 5.81718 8.38321 5.76518L5.65721 3.67118C5.49321 3.54518 5.46221 3.31018 5.58821 3.14518C5.71471 2.98118 5.94971 2.95068 6.11421 3.07668L8.84071 5.17018C9.00471 5.29618 9.03571 5.53168 8.90921 5.69618C8.83571 5.79218 8.72421 5.84268 8.61171 5.84268Z" fill="#669BFF"/>
</svg>
