<svg width="33" height="32" viewBox="0 0 33 32" fill="none" xmlns="http://www.w3.org/2000/svg">
<g clip-path="url(#clip0_714_8739)">
<path d="M16.4526 31.9756C25.2824 31.9756 32.4404 24.8176 32.4404 15.9878C32.4404 7.15798 25.2824 0 16.4526 0C7.62282 0 0.464844 7.15798 0.464844 15.9878C0.464844 24.8176 7.62282 31.9756 16.4526 31.9756Z" fill="#3A5A98"/>
<path d="M27.7598 4.70703C34.0034 10.9507 34.0037 21.074 27.7595 27.3181C21.5156 33.5617 11.3921 33.5617 5.14844 27.3181L27.7598 4.70703Z" fill="#345387"/>
<path d="M32.3338 17.788L20.7687 6.22266L14.7641 12.2272L15.1218 12.585L11.7031 16.0034L14.5013 18.8016L14.1333 19.1694L17.1627 22.1988L13.6702 25.6913L19.6364 31.6575C26.3643 30.296 31.5575 24.7102 32.3338 17.788Z" fill="#2E4D72"/>
<path d="M13.6558 10.0492C13.6558 10.5397 13.6558 12.7305 13.6558 12.7305H11.6914V16.0094H13.6558V25.752H17.6909V16.0094H20.3987C20.3987 16.0094 20.6524 14.4369 20.7751 12.7182C20.4227 12.7182 17.7063 12.7182 17.7063 12.7182C17.7063 12.7182 17.7063 10.8104 17.7063 10.4761C17.7063 10.1413 18.1461 9.69072 18.581 9.69072C19.0153 9.69072 19.9314 9.69072 20.7796 9.69072C20.7796 9.24388 20.7796 7.70168 20.7796 6.27734C19.6471 6.27734 18.3587 6.27734 17.7904 6.27734C13.5558 6.27714 13.6558 9.55902 13.6558 10.0492Z" fill="white"/>
</g>
<defs>
<clipPath id="clip0_714_8739">
<rect width="32" height="32" fill="white" transform="translate(0.453125)"/>
</clipPath>
</defs>
</svg>
