<svg width="47" height="47" viewBox="0 0 47 47" fill="none" xmlns="http://www.w3.org/2000/svg">
<circle cx="23.5" cy="23.5" r="23" fill="white" stroke="#E6E6E6"/>
<g clip-path="url(#clip0_1743_17918)">
<path d="M12.0234 23.1397V21.988H17.8138V23.1397H12.0234ZM12.08 20.3814C12.4301 20.2083 12.7444 20.0169 13.0215 19.8055C13.2986 19.5942 13.5429 19.366 13.7529 19.1224C13.9585 18.882 14.1164 18.6262 14.2296 18.3521C14.3414 18.0779 14.4039 17.79 14.4188 17.4883H15.7282C15.7193 17.6904 15.6984 17.8834 15.6657 18.0718C15.6329 18.2586 15.5867 18.4394 15.5256 18.6124C15.7357 18.7365 15.9383 18.8636 16.1349 18.9907C16.3315 19.1178 16.5148 19.248 16.6876 19.3828C16.8559 19.5268 17.0302 19.683 17.2119 19.8515C17.3937 20.0199 17.5814 20.2037 17.772 20.4059L16.9453 21.3707C16.7814 21.1839 16.6146 21.0062 16.4418 20.8378C16.269 20.6693 16.0917 20.5085 15.91 20.3553C15.7416 20.2359 15.5778 20.1195 15.4169 20.0092C15.256 19.8989 15.0936 19.7963 14.9298 19.6998L14.8463 19.8086C14.7108 19.977 14.5663 20.1363 14.4129 20.2879C14.2594 20.4396 14.0956 20.5789 13.9228 20.7091C13.741 20.8485 13.5548 20.9741 13.3656 21.0874C13.1764 21.2007 12.9843 21.3018 12.7876 21.3937L12.08 20.3814Z" fill="#0059FF"/>
<path d="M19.5953 17.8007V21.8777H20.6082C20.7021 21.8777 20.7944 21.8762 20.8883 21.8716C20.9821 21.867 21.0745 21.8578 21.1683 21.844C21.2622 21.8394 21.3471 21.8302 21.4246 21.8165C21.502 21.8027 21.575 21.7843 21.6406 21.7613V22.7752C21.578 22.812 21.508 22.8395 21.4305 22.861C21.3531 22.8809 21.2667 22.8962 21.1743 22.9054C21.0715 22.9192 20.9717 22.9284 20.8749 22.933C20.7766 22.9375 20.6797 22.9391 20.5814 22.9391H18.3618V17.8007H19.5953ZM24.0791 19.5406V20.726C24.0523 20.726 24.024 20.726 23.9927 20.7291C23.9615 20.7321 23.9287 20.7352 23.8929 20.7398C23.8572 20.7398 23.8214 20.7428 23.7857 20.7459C23.7499 20.7505 23.7127 20.752 23.6725 20.752C23.5965 20.7658 23.525 20.7796 23.4565 20.7934C23.3879 20.8072 23.3224 20.821 23.2598 20.8347V23.2255H22.0264V17.7119H23.2598V19.6646C23.3224 19.6463 23.3879 19.6294 23.4565 19.6126C23.525 19.5972 23.5995 19.5819 23.6799 19.5681C23.7201 19.5681 23.7589 19.5666 23.7961 19.562C23.8333 19.5574 23.8676 19.5559 23.8989 19.5559C23.9346 19.5513 23.9659 19.5482 23.9957 19.5452C24.024 19.5436 24.0523 19.5421 24.0791 19.5421V19.5406Z" fill="#333333"/>
<path d="M26.4283 17.715C26.5416 17.7396 26.6518 17.7763 26.7576 17.8207C26.8559 17.8759 26.9468 17.9417 27.0302 18.0198C27.1151 18.0979 27.194 18.1883 27.27 18.294C27.337 18.4042 27.3996 18.5283 27.4562 18.6677C27.5143 18.807 27.5635 18.9587 27.6022 19.1225C27.638 19.2956 27.6663 19.4855 27.6856 19.6907C27.705 19.896 27.7154 20.118 27.7154 20.3554C27.7154 20.5928 27.705 20.8287 27.6856 21.037C27.6663 21.2453 27.638 21.4306 27.6022 21.596C27.562 21.769 27.5128 21.9253 27.4562 22.0616C27.3981 22.1979 27.3356 22.3204 27.27 22.4245C27.194 22.5348 27.1151 22.6282 27.0302 22.7048C26.9453 22.7829 26.8544 22.8442 26.7576 22.8901C26.6518 22.9407 26.5416 22.9774 26.4283 23.0004C26.3151 23.0234 26.196 23.0341 26.0723 23.0341C25.9397 23.0341 25.8161 23.0234 25.7029 23.0004C25.5897 22.9774 25.4839 22.9407 25.3871 22.8901C25.2798 22.8442 25.1845 22.7829 25.0966 22.7048C25.0102 22.6267 24.9327 22.5333 24.8672 22.4245C24.7912 22.3189 24.7272 22.1979 24.6735 22.0616C24.6199 21.9253 24.5752 21.769 24.5409 21.596C24.5007 21.4321 24.4724 21.2453 24.4545 21.037C24.4367 20.8287 24.4277 20.602 24.4277 20.3554C24.4277 20.1089 24.4367 19.896 24.4545 19.6907C24.4724 19.4855 24.5007 19.2956 24.5409 19.1225C24.5767 18.9587 24.6214 18.807 24.6735 18.6677C24.7272 18.5283 24.7912 18.4042 24.8672 18.294C24.9342 18.1883 25.0102 18.0979 25.0966 18.0198C25.183 17.9417 25.2798 17.8759 25.3871 17.8207C25.4854 17.7748 25.5897 17.7396 25.7029 17.715C25.8161 17.6905 25.9397 17.6768 26.0723 17.6768C26.196 17.6768 26.3151 17.689 26.4283 17.715ZM25.968 18.8254C25.9353 18.8361 25.9055 18.8499 25.8787 18.8637C25.8429 18.8867 25.8116 18.9158 25.7848 18.9495C25.758 18.9832 25.7342 19.0276 25.7118 19.0827C25.685 19.1379 25.6642 19.2052 25.6493 19.2849C25.6344 19.3645 25.6195 19.4534 25.6061 19.5483C25.5882 19.654 25.5763 19.7734 25.5688 19.9082C25.5629 20.043 25.5584 20.1931 25.5584 20.357C25.5584 20.53 25.5614 20.6847 25.5688 20.8195C25.5748 20.9543 25.5882 21.0691 25.6061 21.1656C25.6195 21.2713 25.6344 21.3617 25.6493 21.4398C25.6642 21.5179 25.6865 21.5837 25.7118 21.6389C25.7342 21.694 25.758 21.7399 25.7848 21.7752C25.8116 21.8119 25.8429 21.8364 25.8787 21.8502C25.9055 21.8732 25.9353 21.8885 25.968 21.8946C26.0008 21.9008 26.0351 21.9054 26.0708 21.9054C26.0976 21.9054 26.1259 21.9023 26.1572 21.8946C26.1885 21.8885 26.2213 21.8732 26.257 21.8502C26.2839 21.8364 26.3122 21.8119 26.3405 21.7752C26.3688 21.7384 26.3971 21.6925 26.4239 21.6389C26.4418 21.5837 26.4611 21.5179 26.4805 21.4398C26.4999 21.3617 26.5192 21.2713 26.5371 21.1656C26.5505 21.0691 26.5609 20.9543 26.5699 20.8195C26.5788 20.6847 26.5833 20.53 26.5833 20.357C26.5833 20.1931 26.5788 20.043 26.5699 19.9082C26.5609 19.7734 26.5505 19.654 26.5371 19.5483C26.5192 19.4518 26.4999 19.3645 26.4805 19.2849C26.4611 19.2052 26.4418 19.1379 26.4239 19.0827C26.3971 19.0276 26.3688 18.9832 26.3405 18.9495C26.3122 18.9158 26.2839 18.8867 26.257 18.8637C26.2213 18.8499 26.1885 18.8377 26.1572 18.8254C26.1259 18.8147 26.0976 18.8086 26.0708 18.8086C26.0351 18.8086 26.0008 18.8147 25.968 18.8254ZM28.2234 23.2271V17.712H29.4568V23.2271H28.2234Z" fill="#333333"/>
<path d="M30.4894 18.7947H30.1899V17.767H33.3957V18.7947H33.0233V21.9053H33.3957V22.933H30.1899V21.9053H30.4894V18.7947ZM31.9552 21.9053V18.7947H31.556V21.9053H31.9552ZM34.1212 20.7612C34.0854 20.775 34.0452 20.7842 33.9975 20.7888C33.9513 20.7934 33.8992 20.7949 33.8411 20.7949C33.7741 20.7995 33.7085 20.801 33.6445 20.801H33.354V19.7045H34.1197V17.7119H35.2861V23.2347H34.1197V20.7612H34.1212Z" fill="#333333"/>
<path d="M12.4302 25.1873H12.1636V24.2148H14.9641V25.1873H14.6915V26.4754H14.9641V27.4464H12.1636V26.4754H12.4302V25.1873ZM16.7428 29.9964V29.0315H12.5762V27.8798H17.9673V29.9964H16.7428ZM13.7396 26.4754V25.1873H13.3821V26.4754H13.7396ZM16.8828 26.3819C16.8217 26.3957 16.7592 26.4064 16.6936 26.4141C16.6281 26.4218 16.5611 26.4248 16.491 26.4248V27.6271H15.4051V24.1934H16.491V25.2945H16.8828V24.1934H17.9688V27.6271H16.8828V26.3819Z" fill="#0059FF"/>
<path d="M22.5 27.2232C22.6236 27.2232 22.7443 27.2232 22.8605 27.2201C22.9767 27.2186 23.0869 27.2125 23.1942 27.2033C23.2925 27.2033 23.3863 27.1971 23.4772 27.1864C23.5681 27.1757 23.6545 27.1619 23.7334 27.1481V28.1283C23.6709 28.1513 23.5994 28.1712 23.5174 28.1865C23.4355 28.2018 23.3431 28.2126 23.2404 28.2172C23.1331 28.2309 23.0214 28.2401 22.9037 28.2447C22.786 28.2493 22.6653 28.2508 22.5402 28.2508H21.8133V28.8818H23.9658V29.9095H18.4556V28.8818H20.6081V28.2508H18.7818V24.4756H23.6321V25.5033H19.9139V25.8463H23.5651V26.874H19.9139V27.2232H22.5Z" fill="#333333"/>
<path d="M24.5723 26.5585H26.4448V25.5921H24.6051V24.5307H27.5769V27.5862H25.7044V28.6337H27.7631V29.6951H24.5708V26.557L24.5723 26.5585ZM28.2369 29.9907V24.4756H29.4703V29.9907H28.2369Z" fill="#333333"/>
<path d="M32.5942 25.6692V25.1699C31.6096 25.2833 30.8215 26.0781 30.6904 27.0844H31.1775C31.3012 26.3507 31.8747 25.7749 32.5942 25.6692Z" fill="#0059FF"/>
<path d="M34.4919 27.0863H34.979C34.8479 26.0801 34.0599 25.2852 33.0752 25.1719V25.6712C33.7947 25.7784 34.3682 26.3542 34.4919 27.0863Z" fill="#0059FF"/>
<path d="M31.1624 27.5811H30.6782C30.7691 28.6332 31.575 29.4771 32.5924 29.5935V29.0942C31.8416 28.9824 31.2488 28.3591 31.1624 27.5811Z" fill="#0059FF"/>
<path d="M33.0752 29.0942V29.5935C34.0926 29.4771 34.8985 28.6332 34.9894 27.5811H34.5053C34.4189 28.3606 33.826 28.984 33.0752 29.0942Z" fill="#0059FF"/>
<path d="M32.8354 26.3975C32.305 26.3975 31.873 26.8416 31.873 27.3868C31.873 27.9321 32.305 28.3762 32.8354 28.3762C33.3657 28.3762 33.7977 27.9321 33.7977 27.3868C33.7977 26.8416 33.3657 26.3975 32.8354 26.3975ZM32.8354 27.88C32.5702 27.88 32.3557 27.6579 32.3557 27.3868C32.3557 27.1158 32.5717 26.8937 32.8354 26.8937C33.099 26.8937 33.315 27.1158 33.315 27.3868C33.315 27.6579 33.099 27.88 32.8354 27.88Z" fill="#0059FF"/>
<path d="M33.0754 25.1719V24.8917C33.0754 24.7554 32.9682 24.6436 32.8341 24.6436C32.7 24.6436 32.5928 24.7538 32.5928 24.8917V25.1719C32.6717 25.1627 32.7522 25.1582 32.8341 25.1582C32.916 25.1582 32.9965 25.1627 33.0754 25.1719Z" fill="#0059FF"/>
<path d="M32.8356 25.6529C32.9175 25.6529 32.9979 25.659 33.0769 25.6713V25.172C32.9979 25.1628 32.9175 25.1582 32.8356 25.1582C32.7536 25.1582 32.6732 25.1628 32.5942 25.172V25.6713C32.6732 25.659 32.7536 25.6529 32.8356 25.6529Z" fill="#0059FF"/>
<path d="M32.5942 29.5938V29.8817C32.5942 30.018 32.7015 30.1298 32.8356 30.1298C32.9696 30.1298 33.0769 30.0195 33.0769 29.8817V29.5938C32.9979 29.6029 32.9175 29.6075 32.8356 29.6075C32.7536 29.6075 32.6732 29.6029 32.5942 29.5938Z" fill="#0059FF"/>
<path d="M32.8356 29.1121C32.7536 29.1121 32.6732 29.106 32.5942 29.0938V29.593C32.6732 29.6022 32.7536 29.6068 32.8356 29.6068C32.9175 29.6068 32.9979 29.6022 33.0769 29.593V29.0938C32.9979 29.106 32.9175 29.1121 32.8356 29.1121Z" fill="#0059FF"/>
<path d="M35.2903 27.0865H34.9805C34.9924 27.183 34.9998 27.2825 34.9998 27.3836C34.9998 27.451 34.9969 27.5169 34.9909 27.5812H35.2903C35.4229 27.5812 35.5316 27.4709 35.5316 27.3331C35.5316 27.1952 35.4244 27.085 35.2903 27.085V27.0865Z" fill="#0059FF"/>
<path d="M34.9788 27.0859H34.4917C34.5081 27.1824 34.517 27.282 34.517 27.3831C34.517 27.4504 34.5126 27.5163 34.5051 27.5806H34.9892C34.9952 27.5148 34.9982 27.4489 34.9982 27.3831C34.9982 27.282 34.9907 27.184 34.9788 27.0859Z" fill="#0059FF"/>
<path d="M30.6903 27.0859H30.4117C30.2792 27.0859 30.1704 27.1962 30.1704 27.334C30.1704 27.4719 30.2777 27.5822 30.4117 27.5822H30.6799C30.6739 27.5163 30.6709 27.4504 30.6709 27.3846C30.6709 27.2835 30.6784 27.1855 30.6903 27.0875V27.0859Z" fill="#0059FF"/>
<path d="M31.1521 27.3821C31.1521 27.281 31.161 27.1814 31.1774 27.085H30.6903C30.6783 27.1814 30.6709 27.281 30.6709 27.3821C30.6709 27.4495 30.6739 27.5153 30.6798 27.5797H31.164C31.1565 27.5138 31.1521 27.4479 31.1521 27.3821Z" fill="#0059FF"/>
<path d="M32.9261 28.128C33.3243 28.128 33.6471 27.7962 33.6471 27.3868C33.6471 26.9774 33.3243 26.6455 32.9261 26.6455C32.5279 26.6455 32.2051 26.9774 32.2051 27.3868C32.2051 27.7962 32.5279 28.128 32.9261 28.128Z" fill="#0059FF"/>
</g>
<defs>
<clipPath id="clip0_1743_17918">
<rect width="23.5069" height="12.6414" fill="white" transform="translate(12.0234 17.4883)"/>
</clipPath>
</defs>
</svg>
