<svg width="33" height="32" viewBox="0 0 33 32" fill="none" xmlns="http://www.w3.org/2000/svg">
<g clip-path="url(#clip0_714_8744)">
<path d="M16.4531 32C25.2897 32 32.4531 24.8366 32.4531 16C32.4531 7.16344 25.2897 0 16.4531 0C7.61657 0 0.453125 7.16344 0.453125 16C0.453125 24.8366 7.61657 32 16.4531 32Z" fill="#6C27B3"/>
<path d="M23.8734 8.30669C21.9617 8.54869 19.9684 8.54026 17.9624 8.34926C15.161 8.13376 11.0668 6.84082 9.55835 9.42669C7.1351 13.5664 8.33029 18.8664 8.89498 23.5566L17.316 31.9758C25.4653 31.5431 31.9964 25.0129 32.4305 16.8639L23.8734 8.30669Z" fill="#501A96"/>
<path d="M20.1529 6.8418H12.7495C9.74072 6.8418 7.29297 9.28955 7.29297 12.2983V19.7017C7.29297 22.7104 9.74072 25.1583 12.7495 25.1583H20.153C23.1616 25.1583 25.6095 22.7105 25.6095 19.7017V12.2983C25.6095 9.28955 23.1617 6.8418 20.1529 6.8418ZM23.7668 19.7018C23.7668 21.6977 22.1488 23.3157 20.153 23.3157H12.7495C10.7537 23.3157 9.13566 21.6977 9.13566 19.7018V12.2984C9.13566 10.3025 10.7537 8.68442 12.7495 8.68442H20.153C22.1488 8.68442 23.7668 10.3025 23.7668 12.2984V19.7018Z" fill="white"/>
<path d="M16.4522 11.2617C13.8401 11.2617 11.7148 13.387 11.7148 15.9991C11.7148 18.611 13.8401 20.7363 16.4522 20.7363C19.0643 20.7363 21.1894 18.6112 21.1894 15.9991C21.1894 13.387 19.0643 11.2617 16.4522 11.2617ZM16.4522 18.8937C14.8535 18.8937 13.5575 17.5978 13.5575 15.9991C13.5575 14.4003 14.8535 13.1043 16.4522 13.1043C18.0509 13.1043 19.3468 14.4003 19.3468 15.9991C19.3468 17.5978 18.0509 18.8937 16.4522 18.8937Z" fill="white"/>
<path d="M22.3368 11.2993C22.3368 11.9261 21.8285 12.4344 21.2016 12.4344C20.5747 12.4344 20.0664 11.9261 20.0664 11.2993C20.0664 10.6723 20.5747 10.1641 21.2016 10.1641C21.8287 10.1641 22.3368 10.6722 22.3368 11.2993Z" fill="#D1D1D1"/>
<path d="M20.1556 6.8418H16.418V8.68442H20.1556C22.1515 8.68442 23.7695 10.3025 23.7695 12.2984V19.7018C23.7695 21.6977 22.1515 23.3157 20.1556 23.3157H16.418V25.1583H20.1556C23.1642 25.1583 25.6121 22.7105 25.6121 19.7017V12.2983C25.6121 9.28955 23.1643 6.8418 20.1556 6.8418Z" fill="#D1D1D1"/>
<path d="M16.4538 11.2617C16.4418 11.2617 16.43 11.2626 16.418 11.2626V13.1052C16.4299 13.1051 16.4418 13.1043 16.4538 13.1043C18.0525 13.1043 19.3484 14.4003 19.3484 15.9991C19.3484 17.5978 18.0526 18.8937 16.4538 18.8937C16.4418 18.8937 16.4299 18.8929 16.418 18.8928V20.7354C16.43 20.7355 16.4418 20.7363 16.4538 20.7363C19.066 20.7363 21.191 18.6112 21.191 15.9991C21.191 13.387 19.066 11.2617 16.4538 11.2617Z" fill="#D1D1D1"/>
</g>
<defs>
<clipPath id="clip0_714_8744">
<rect width="32" height="32" fill="white" transform="translate(0.453125)"/>
</clipPath>
</defs>
</svg>
