<svg width="216" height="132" viewBox="0 0 216 132" fill="none" xmlns="http://www.w3.org/2000/svg">
<rect x="0.871094" width="214.606" height="132" rx="10" fill="#F5F8FF"/>
<g clip-path="url(#clip0_4483_16494)">
<path d="M76.2021 64.1201V60.8855H91.9531V64.1201H76.2021ZM76.3561 56.3733C77.3084 55.8873 78.1634 55.3496 78.9171 54.756C79.6708 54.1624 80.3354 53.5215 80.9068 52.8376C81.466 52.1623 81.8955 51.444 82.2035 50.674C82.5074 49.9041 82.6776 49.0954 82.7181 48.248H86.28C86.2557 48.8158 86.199 49.3578 86.1098 49.8869C86.0207 50.4116 85.895 50.9192 85.7289 51.4052C86.3003 51.7537 86.8514 52.1107 87.3863 52.4677C87.9212 52.8247 88.4196 53.1903 88.8896 53.5688C89.3475 53.9732 89.8216 54.4119 90.316 54.885C90.8104 55.3582 91.321 55.8744 91.8396 56.4421L89.5907 59.152C89.1449 58.6272 88.6911 58.1283 88.221 57.6551C87.751 57.182 87.2688 56.7303 86.7744 56.3002C86.3165 55.9647 85.8707 55.6378 85.4331 55.3281C84.9955 55.0184 84.5538 54.7302 84.108 54.4592L83.8811 54.7646C83.5123 55.2378 83.1193 55.6851 82.7019 56.1109C82.2845 56.5368 81.8388 56.9282 81.3687 57.2938C80.8744 57.6852 80.3678 58.0379 79.8532 58.3562C79.3386 58.6746 78.8158 58.9584 78.2809 59.2165L76.3561 56.3733Z" fill="#0059FF"/>
<path d="M96.7996 49.1255V60.5757H99.5551C99.8104 60.5757 100.062 60.5714 100.317 60.5585C100.572 60.5456 100.823 60.5198 101.079 60.4811C101.334 60.4681 101.565 60.4423 101.776 60.4036C101.986 60.3649 102.185 60.3133 102.363 60.2488V63.0963C102.193 63.1995 102.003 63.2769 101.792 63.3372C101.581 63.3931 101.346 63.4361 101.095 63.4619C100.815 63.5006 100.544 63.5264 100.28 63.5393C100.013 63.5522 99.7496 63.5565 99.4821 63.5565H93.4443V49.1255H96.7996ZM108.997 54.0118V57.3411C108.924 57.3411 108.847 57.3411 108.762 57.3497C108.677 57.3583 108.587 57.3669 108.49 57.3798C108.393 57.3798 108.296 57.3884 108.198 57.397C108.101 57.4099 108 57.4142 107.89 57.4142C107.684 57.4529 107.489 57.4916 107.303 57.5303C107.117 57.569 106.938 57.6077 106.768 57.6465V64.3609H103.413V48.876H106.768V54.3602C106.938 54.3086 107.117 54.2613 107.303 54.214C107.489 54.171 107.692 54.1279 107.911 54.0892C108.02 54.0892 108.126 54.0849 108.227 54.072C108.328 54.0591 108.421 54.0548 108.506 54.0548C108.604 54.0419 108.689 54.0333 108.77 54.0247C108.847 54.0204 108.924 54.0161 108.997 54.0161V54.0118Z" fill="#333333"/>
<path d="M115.387 48.8849C115.695 48.9537 115.995 49.0569 116.283 49.1817C116.55 49.3365 116.798 49.5215 117.025 49.7408C117.256 49.9602 117.47 50.214 117.677 50.5108C117.859 50.8205 118.029 51.1689 118.183 51.5603C118.342 51.9517 118.475 52.3776 118.581 52.8378C118.678 53.3239 118.755 53.8573 118.808 54.4336C118.86 55.01 118.889 55.6337 118.889 56.3004C118.889 56.9671 118.86 57.6295 118.808 58.2145C118.755 58.7995 118.678 59.32 118.581 59.7845C118.471 60.2706 118.337 60.7093 118.183 61.0921C118.025 61.475 117.855 61.8191 117.677 62.1116C117.47 62.4213 117.256 62.6836 117.025 62.8987C116.794 63.1181 116.546 63.2901 116.283 63.4192C115.995 63.5611 115.695 63.6644 115.387 63.7289C115.079 63.7934 114.755 63.8235 114.419 63.8235C114.058 63.8235 113.722 63.7934 113.414 63.7289C113.106 63.6644 112.818 63.5611 112.555 63.4192C112.263 63.2901 112.004 63.1181 111.765 62.8987C111.53 62.6793 111.319 62.417 111.141 62.1116C110.934 61.8148 110.76 61.475 110.614 61.0921C110.468 60.7093 110.346 60.2706 110.253 59.7845C110.144 59.3243 110.067 58.7995 110.018 58.2145C109.97 57.6295 109.945 56.9929 109.945 56.3004C109.945 55.6079 109.97 55.01 110.018 54.4336C110.067 53.8573 110.144 53.3239 110.253 52.8378C110.351 52.3776 110.472 51.9517 110.614 51.5603C110.76 51.1689 110.934 50.8205 111.141 50.5108C111.323 50.214 111.53 49.9602 111.765 49.7408C112 49.5215 112.263 49.3365 112.555 49.1817C112.822 49.0526 113.106 48.9537 113.414 48.8849C113.722 48.8161 114.058 48.7773 114.419 48.7773C114.755 48.7773 115.079 48.8118 115.387 48.8849ZM114.135 52.0034C114.046 52.0335 113.965 52.0722 113.892 52.1109C113.795 52.1754 113.71 52.2571 113.637 52.3518C113.564 52.4464 113.499 52.5711 113.438 52.726C113.365 52.8808 113.309 53.0701 113.268 53.2938C113.228 53.5174 113.187 53.7669 113.151 54.0336C113.102 54.3304 113.07 54.6659 113.049 55.0444C113.033 55.4229 113.021 55.8445 113.021 56.3047C113.021 56.7908 113.029 57.2252 113.049 57.6037C113.066 57.9823 113.102 58.3049 113.151 58.5758C113.187 58.8726 113.228 59.1264 113.268 59.3458C113.309 59.5652 113.369 59.7501 113.438 59.905C113.499 60.0598 113.564 60.1889 113.637 60.2878C113.71 60.391 113.795 60.4598 113.892 60.4986C113.965 60.5631 114.046 60.6061 114.135 60.6233C114.224 60.6405 114.318 60.6534 114.415 60.6534C114.488 60.6534 114.565 60.6448 114.65 60.6233C114.735 60.6061 114.824 60.5631 114.921 60.4986C114.994 60.4598 115.071 60.391 115.148 60.2878C115.225 60.1846 115.302 60.0555 115.375 59.905C115.424 59.7501 115.477 59.5652 115.529 59.3458C115.582 59.1264 115.635 58.8726 115.683 58.5758C115.72 58.3049 115.748 57.9823 115.772 57.6037C115.797 57.2252 115.809 56.7908 115.809 56.3047C115.809 55.8445 115.797 55.4229 115.772 55.0444C115.748 54.6659 115.72 54.3304 115.683 54.0336C115.635 53.7626 115.582 53.5174 115.529 53.2938C115.477 53.0701 115.424 52.8808 115.375 52.726C115.302 52.5711 115.225 52.4464 115.148 52.3518C115.071 52.2571 114.994 52.1754 114.921 52.1109C114.824 52.0722 114.735 52.0378 114.65 52.0034C114.565 51.9733 114.488 51.9561 114.415 51.9561C114.318 51.9561 114.224 51.9733 114.135 52.0034ZM120.27 64.3655V48.8763H123.626V64.3655H120.27Z" fill="#333333"/>
<path d="M126.434 51.917H125.619V49.0308H134.34V51.917H133.326V60.6531H134.34V63.5393H125.619V60.6531H126.434V51.917ZM130.421 60.6531V51.917H129.335V60.6531H130.421ZM136.313 57.44C136.216 57.4787 136.106 57.5045 135.977 57.5174C135.851 57.5303 135.709 57.5346 135.551 57.5346C135.369 57.5475 135.19 57.5518 135.016 57.5518H134.226V54.472H136.309V48.876H139.482V64.3867H136.309V57.44H136.313Z" fill="#333333"/>
<path d="M77.3084 69.8712H76.583V67.1398H84.2012V69.8712H83.4596V73.4886H84.2012V76.2157H76.583V73.4886H77.3084V69.8712ZM89.0395 83.3775V80.6676H77.7055V77.433H92.3704V83.3775H89.0395ZM80.8703 73.4886V69.8712H79.8977V73.4886H80.8703ZM89.4204 73.2262C89.2543 73.2649 89.0841 73.2951 88.9058 73.3166C88.7275 73.3381 88.5451 73.3467 88.3547 73.3467V76.7232H85.4006V67.0796H88.3547V70.1723H89.4204V67.0796H92.3745V76.7232H89.4204V73.2262Z" fill="#0059FF"/>
<path d="M104.701 75.5877C105.037 75.5877 105.366 75.5877 105.682 75.5791C105.998 75.5748 106.298 75.5576 106.589 75.5318C106.857 75.5318 107.112 75.5146 107.359 75.4845C107.606 75.4544 107.841 75.4157 108.056 75.377V78.1298C107.886 78.1944 107.692 78.2503 107.469 78.2933C107.246 78.3363 106.995 78.3664 106.715 78.3793C106.423 78.418 106.119 78.4438 105.799 78.4568C105.479 78.4697 105.151 78.474 104.81 78.474H102.833V80.2461H108.688V83.1323H93.6992V80.2461H99.5547V78.474H94.5867V67.8711H107.781V70.7573H97.6663V71.7208H107.598V74.607H97.6663V75.5877H104.701Z" fill="#333333"/>
<path d="M110.338 73.7209H115.432V71.0068H110.427V68.0259H118.511V76.6072H113.418V79.5493H119.018V82.5301H110.334V73.7166L110.338 73.7209ZM120.306 83.3603V67.8711H123.662V83.3603H120.306Z" fill="#333333"/>
<path d="M132.159 71.226V69.8237C129.481 70.142 127.337 72.3744 126.98 75.2004H128.306C128.642 73.1401 130.202 71.5228 132.159 71.226Z" fill="#0059FF"/>
<path d="M137.321 75.2048H138.646C138.29 72.3788 136.146 70.1464 133.468 69.8281V71.2304C135.425 71.5315 136.985 73.1488 137.321 75.2048Z" fill="#0059FF"/>
<path d="M128.265 76.5942H126.948C127.195 79.5493 129.388 81.9193 132.155 82.2462V80.844C130.113 80.53 128.5 78.7793 128.265 76.5942Z" fill="#0059FF"/>
<path d="M133.468 80.844V82.2462C136.235 81.9193 138.428 79.5493 138.675 76.5942H137.358C137.123 78.7836 135.51 80.5343 133.468 80.844Z" fill="#0059FF"/>
<path d="M132.816 73.2695C131.373 73.2695 130.198 74.5169 130.198 76.0482C130.198 77.5795 131.373 78.8269 132.816 78.8269C134.259 78.8269 135.434 77.5795 135.434 76.0482C135.434 74.5169 134.259 73.2695 132.816 73.2695ZM132.816 77.4333C132.095 77.4333 131.511 76.8096 131.511 76.0482C131.511 75.2869 132.099 74.6632 132.816 74.6632C133.533 74.6632 134.121 75.2869 134.121 76.0482C134.121 76.8096 133.533 77.4333 132.816 77.4333Z" fill="#0059FF"/>
<path d="M133.468 69.8282V69.0411C133.468 68.6582 133.176 68.3442 132.812 68.3442C132.447 68.3442 132.155 68.6539 132.155 69.0411V69.8282C132.37 69.8024 132.589 69.7895 132.812 69.7895C133.035 69.7895 133.253 69.8024 133.468 69.8282Z" fill="#0059FF"/>
<path d="M132.816 71.1789C133.039 71.1789 133.257 71.1961 133.472 71.2305V69.8283C133.257 69.8025 133.039 69.7896 132.816 69.7896C132.593 69.7896 132.374 69.8025 132.159 69.8283V71.2305C132.374 71.1961 132.593 71.1789 132.816 71.1789Z" fill="#0059FF"/>
<path d="M132.159 82.2461V83.0547C132.159 83.4376 132.451 83.7516 132.816 83.7516C133.18 83.7516 133.472 83.4419 133.472 83.0547V82.2461C133.257 82.2719 133.039 82.2848 132.816 82.2848C132.593 82.2848 132.374 82.2719 132.159 82.2461Z" fill="#0059FF"/>
<path d="M132.816 80.8959C132.593 80.8959 132.374 80.8786 132.159 80.8442V82.2465C132.374 82.2723 132.593 82.2852 132.816 82.2852C133.039 82.2852 133.257 82.2723 133.472 82.2465V80.8442C133.257 80.8786 133.039 80.8959 132.816 80.8959Z" fill="#0059FF"/>
<path d="M139.494 75.205H138.651C138.684 75.476 138.704 75.7556 138.704 76.0394C138.704 76.2287 138.696 76.4137 138.68 76.5943H139.494C139.855 76.5943 140.151 76.2846 140.151 75.8975C140.151 75.5104 139.859 75.2007 139.494 75.2007V75.205Z" fill="#0059FF"/>
<path d="M138.647 75.2051H137.322C137.367 75.4761 137.391 75.7557 137.391 76.0395C137.391 76.2288 137.379 76.4138 137.359 76.5944H138.676C138.692 76.4095 138.7 76.2245 138.7 76.0395C138.7 75.7557 138.68 75.4804 138.647 75.2051Z" fill="#0059FF"/>
<path d="M126.981 75.2051H126.223C125.862 75.2051 125.566 75.5148 125.566 75.9019C125.566 76.289 125.858 76.5987 126.223 76.5987H126.952C126.936 76.4138 126.928 76.2288 126.928 76.0438C126.928 75.76 126.948 75.4847 126.981 75.2094V75.2051Z" fill="#0059FF"/>
<path d="M128.237 76.0351C128.237 75.7513 128.261 75.4717 128.305 75.2007H126.98C126.948 75.4717 126.928 75.7513 126.928 76.0351C126.928 76.2244 126.936 76.4094 126.952 76.59H128.269C128.249 76.4051 128.237 76.2201 128.237 76.0351Z" fill="#0059FF"/>
<path d="M133.063 78.13C134.146 78.13 135.024 77.1979 135.024 76.0482C135.024 74.8984 134.146 73.9663 133.063 73.9663C131.98 73.9663 131.102 74.8984 131.102 76.0482C131.102 77.1979 131.98 78.13 133.063 78.13Z" fill="#0059FF"/>
</g>
<defs>
<clipPath id="clip0_4483_16494">
<rect width="63.944" height="35.5034" fill="white" transform="translate(76.2021 48.248)"/>
</clipPath>
</defs>
</svg>
