<svg width="139" height="103" viewBox="0 0 139 103" fill="none" xmlns="http://www.w3.org/2000/svg">
<path d="M111.371 10.0107V6.09375C103.409 6.98287 97.0366 13.2187 95.9766 21.1127H99.9155C100.915 15.3574 105.553 10.8397 111.371 10.0107Z" fill="#0059FF"/>
<path d="M126.717 21.1244H130.656C129.596 13.2305 123.224 6.99459 115.262 6.10547V10.0224C121.08 10.8635 125.717 15.3812 126.717 21.1244Z" fill="#0059FF"/>
<path d="M99.7977 25.0059H95.8828C96.6176 33.2603 103.134 39.8806 111.362 40.7938V36.8768C105.291 35.9997 100.496 31.1096 99.7977 25.0059Z" fill="#0059FF"/>
<path d="M115.262 36.8768V40.7938C123.489 39.8806 130.006 33.2603 130.741 25.0059H126.826C126.127 31.1216 121.333 36.0117 115.262 36.8768Z" fill="#0059FF"/>
<path d="M113.325 15.7188C109.036 15.7188 105.543 19.2031 105.543 23.4805C105.543 27.7579 109.036 31.2423 113.325 31.2423C117.613 31.2423 121.106 27.7579 121.106 23.4805C121.106 19.2031 117.613 15.7188 113.325 15.7188ZM113.325 27.3494C111.18 27.3494 109.446 25.6072 109.446 23.4805C109.446 21.3539 111.192 19.6117 113.325 19.6117C115.457 19.6117 117.203 21.3539 117.203 23.4805C117.203 25.6072 115.457 27.3494 113.325 27.3494Z" fill="#0059FF"/>
<path d="M115.262 6.10617V3.90739C115.262 2.83804 114.395 1.96094 113.311 1.96094C112.227 1.96094 111.359 2.82603 111.359 3.90739V6.10617C111.998 6.03408 112.648 5.99804 113.311 5.99804C113.973 5.99804 114.624 6.03408 115.262 6.10617Z" fill="#0059FF"/>
<path d="M113.323 9.87895C113.985 9.87895 114.635 9.92701 115.274 10.0231V6.10618C114.635 6.03409 113.985 5.99805 113.323 5.99805C112.66 5.99805 112.01 6.03409 111.371 6.10618V10.0231C112.01 9.92701 112.66 9.87895 113.323 9.87895Z" fill="#0059FF"/>
<path d="M111.371 40.793V43.0518C111.371 44.1212 112.238 44.9983 113.323 44.9983C114.407 44.9983 115.274 44.1332 115.274 43.0518V40.793C114.635 40.8651 113.985 40.9011 113.323 40.9011C112.66 40.9011 112.01 40.8651 111.371 40.793Z" fill="#0059FF"/>
<path d="M113.323 37.0211C112.66 37.0211 112.01 36.9731 111.371 36.877V40.7939C112.01 40.866 112.66 40.902 113.323 40.902C113.985 40.902 114.635 40.866 115.274 40.7939V36.877C114.635 36.9731 113.985 37.0211 113.323 37.0211Z" fill="#0059FF"/>
<path d="M133.177 21.1253H130.672C130.768 21.8822 130.828 22.6632 130.828 23.4562C130.828 23.9849 130.804 24.5016 130.756 25.0062H133.177C134.249 25.0062 135.129 24.1411 135.129 23.0597C135.129 21.9784 134.262 21.1133 133.177 21.1133V21.1253Z" fill="#0059FF"/>
<path d="M130.658 21.125H126.719C126.851 21.882 126.924 22.6629 126.924 23.4559C126.924 23.9846 126.887 24.5013 126.827 25.0059H130.742C130.79 24.4893 130.814 23.9726 130.814 23.4559C130.814 22.6629 130.754 21.894 130.658 21.125Z" fill="#0059FF"/>
<path d="M95.9774 21.125H93.7249C92.6528 21.125 91.7734 21.9901 91.7734 23.0715C91.7734 24.1528 92.6407 25.0179 93.7249 25.0179H95.8931C95.8449 24.5013 95.8208 23.9846 95.8208 23.468C95.8208 22.675 95.881 21.906 95.9774 21.137V21.125Z" fill="#0059FF"/>
<path d="M99.7111 23.4442C99.7111 22.6512 99.7834 21.8702 99.9159 21.1133H95.9769C95.8805 21.8702 95.8203 22.6512 95.8203 23.4442C95.8203 23.9729 95.8444 24.4895 95.8926 24.9942H99.8075C99.7472 24.4775 99.7111 23.9609 99.7111 23.4442Z" fill="#0059FF"/>
<path d="M114.057 29.2947C117.277 29.2947 119.887 26.6911 119.887 23.4794C119.887 20.2677 117.277 17.6641 114.057 17.6641C110.837 17.6641 108.227 20.2677 108.227 23.4794C108.227 26.6911 110.837 29.2947 114.057 29.2947Z" fill="#0059FF"/>
<path d="M1.75 25C4.25 23.8 6.48333 22.4667 8.45 21C10.45 19.5333 12.2 17.95 13.7 16.25C15.1667 14.5833 16.3 12.8 17.1 10.9C17.9 9 18.35 7 18.45 4.9H27.8C27.7333 6.3 27.5833 7.65 27.35 8.95C27.1167 10.25 26.7833 11.5 26.35 12.7C27.85 13.5667 29.3 14.45 30.7 15.35C32.1 16.2167 33.4167 17.1167 34.65 18.05C35.85 19.05 37.1 20.1333 38.4 21.3C39.7 22.4667 41.0333 23.75 42.4 25.15L36.5 31.85C35.3333 30.55 34.1333 29.3167 32.9 28.15C31.6667 26.9833 30.4 25.8667 29.1 24.8C27.9 23.9667 26.7167 23.1667 25.55 22.4C24.4167 21.6333 23.2667 20.9167 22.1 20.25L21.5 21C20.5333 22.1667 19.5 23.2833 18.4 24.35C17.3 25.3833 16.1333 26.35 14.9 27.25C13.6 28.2167 12.2667 29.1 10.9 29.9C9.56667 30.6667 8.2 31.3667 6.8 32L1.75 25ZM1.35 44.15V36.15H42.7V44.15H1.35ZM57.0824 20.35V11.4H54.5324V20.35H57.0824ZM47.7324 11.4H45.8324V4.65H65.8324V11.4H63.8824V20.35H65.8324V27.1H45.8324V20.35H47.7324V11.4ZM79.5324 19.7C79.0991 19.8 78.6491 19.8833 78.1824 19.95C77.7158 19.9833 77.2324 20 76.7324 20V28.35H68.9824V4.5H76.7324V12.15H79.5324V4.5H87.2824V28.35H79.5324V19.7ZM78.5324 44.8V38.1H48.7824V30.1H87.2824V44.8H78.5324Z" fill="#0059FF"/>
<path d="M40.6 65.6H36.3C36.8 65.9 37.25 66.2 37.65 66.5C38.0833 66.7667 38.45 67.05 38.75 67.35C39.05 67.75 39.2667 68.1833 39.4 68.65C39.5667 69.0833 39.65 69.5167 39.65 69.95C39.65 71.1167 39.3 72.15 38.6 73.05C37.9 73.9167 36.85 74.65 35.45 75.25C34.05 75.9167 32.2167 76.4 29.95 76.7C27.7167 77 25.0667 77.15 22 77.15C18.9 77.15 16.2167 77 13.95 76.7C11.7167 76.4 9.91667 75.9167 8.55 75.25C7.15 74.65 6.1 73.9167 5.4 73.05C4.7 72.15 4.35 71.1167 4.35 69.95C4.35 69.5167 4.41667 69.0833 4.55 68.65C4.71667 68.1833 4.95 67.75 5.25 67.35C5.48333 67.05 5.8 66.7667 6.2 66.5C6.6 66.2 7.08333 65.9 7.65 65.6H3.85V59.1H17.6V55H26.85V59.1H40.6V65.6ZM22 70.9C23.6333 70.9 25.0167 70.8667 26.15 70.8C27.3167 70.7 28.25 70.55 28.95 70.35C29.5833 70.1833 30.0667 69.9833 30.4 69.75C30.7333 69.4833 30.9 69.1833 30.9 68.85C30.9 68.55 30.7 68.25 30.3 67.95C29.9 67.65 29.3333 67.3667 28.6 67.1C27.8 66.8667 26.85 66.6833 25.75 66.55C24.65 66.4167 23.4 66.35 22 66.35C20.5333 66.35 19.25 66.4167 18.15 66.55C17.05 66.6833 16.1333 66.8667 15.4 67.1C14.6 67.3667 14.0167 67.65 13.65 67.95C13.2833 68.25 13.1 68.55 13.1 68.85C13.1 69.1833 13.25 69.4833 13.55 69.75C13.8833 69.9833 14.4 70.1833 15.1 70.35C15.7333 70.55 16.6167 70.7 17.75 70.8C18.9167 70.8667 20.3333 70.9 22 70.9ZM18.45 88.55V85.2H1.35V78.45H42.7V85.2H28.1V88.55H18.45ZM12.2 87.1V89.6H41.05V96.6H3.45V87.1H12.2ZM46.2324 66.05H58.7824V63.75H46.4824V56.5H67.2824V73.05H54.7324V75.45H68.1824V82.7H46.2324V66.05ZM75.2324 84.85V78.75C74.9324 78.8167 74.6658 78.85 74.4324 78.85C74.2324 78.85 74.0491 78.85 73.8824 78.85C73.5491 78.8833 73.1658 78.9 72.7324 78.9C72.2991 78.9 71.8324 78.9 71.3324 78.9H69.7324V70.95L75.2324 70.9V67.05C74.9324 67.1167 74.6658 67.15 74.4324 67.15C74.2324 67.15 74.0491 67.15 73.8824 67.15C73.5491 67.1833 73.1658 67.2 72.7324 67.2C72.2991 67.2 71.8324 67.2 71.3324 67.2H69.7324V59.2L75.2324 59.15V56.5H83.9824V84.85H75.2324ZM56.1824 84.4V89.4H84.5324V96.65H47.4324V84.4H56.1824ZM111.538 56.9V61.25C111.405 62.35 111.138 63.4167 110.738 64.45C110.372 65.45 109.888 66.4167 109.288 67.35C109.188 67.4833 109.105 67.6167 109.038 67.75C108.972 67.85 108.888 67.95 108.788 68.05L109.388 68.35C110.355 68.9833 111.305 69.7 112.238 70.5C113.172 71.2667 114.088 72.1167 114.988 73.05L109.188 78.7C108.388 77.8 107.555 76.9833 106.688 76.25C105.855 75.4833 104.988 74.8 104.088 74.2C103.988 74.1667 103.888 74.1333 103.788 74.1C103.722 74.0333 103.655 73.9833 103.588 73.95C103.488 73.9167 103.405 73.8833 103.338 73.85C103.272 73.7833 103.205 73.7167 103.138 73.65C102.305 74.25 101.438 74.8167 100.538 75.35C99.6716 75.8833 98.7716 76.35 97.8383 76.75C96.5716 77.35 95.3049 77.85 94.0383 78.25C92.8049 78.65 91.5549 78.9667 90.2883 79.2L86.4883 72.85C88.2883 72.4167 89.9883 71.9167 91.5883 71.35C93.2216 70.75 94.7383 70.0833 96.1383 69.35C97.5049 68.65 98.7049 67.8833 99.7383 67.05C100.805 66.1833 101.688 65.2167 102.388 64.15H88.7383V56.9H111.538ZM131.688 62.4V71.05C131.588 71.05 131.472 71.0667 131.338 71.1C131.238 71.1 131.122 71.1 130.988 71.1C130.855 71.1 130.722 71.1 130.588 71.1C130.488 71.1 130.372 71.1 130.238 71.1C129.938 71.1333 129.638 71.1667 129.338 71.2C129.038 71.2333 128.755 71.2667 128.488 71.3C128.322 71.3333 128.155 71.3667 127.988 71.4C127.855 71.4 127.722 71.4167 127.588 71.45C127.455 71.4833 127.322 71.5167 127.188 71.55C127.055 71.55 126.938 71.55 126.838 71.55C126.638 71.6167 126.472 71.6833 126.338 71.75C126.238 71.7833 126.138 71.8167 126.038 71.85V79.35H117.338V56.5H126.038V63.55C126.305 63.3833 126.605 63.2333 126.938 63.1C127.272 62.9667 127.655 62.8333 128.088 62.7C128.522 62.6 129.038 62.5333 129.638 62.5C130.238 62.4333 130.922 62.4 131.688 62.4ZM109.038 91.55C109.838 91.55 110.555 91.55 111.188 91.55C111.855 91.5167 112.455 91.4667 112.988 91.4C113.488 91.3667 113.938 91.3167 114.338 91.25C114.738 91.15 115.088 91.05 115.388 90.95C115.688 90.85 115.938 90.75 116.138 90.65C116.338 90.5167 116.505 90.3667 116.638 90.2C116.738 90.0667 116.805 89.9167 116.838 89.75C116.905 89.55 116.938 89.35 116.938 89.15C116.938 88.9833 116.905 88.8167 116.838 88.65C116.805 88.4833 116.738 88.3167 116.638 88.15C116.505 88.0167 116.338 87.8833 116.138 87.75C115.938 87.6167 115.688 87.5 115.388 87.4C115.088 87.3 114.738 87.2167 114.338 87.15C113.938 87.0833 113.488 87 112.988 86.9C112.455 86.8667 111.855 86.8333 111.188 86.8C110.555 86.7667 109.838 86.75 109.038 86.75C108.205 86.75 107.455 86.7667 106.788 86.8C106.122 86.8333 105.538 86.8667 105.038 86.9C104.505 87 104.038 87.0833 103.638 87.15C103.238 87.2167 102.905 87.3 102.638 87.4C102.338 87.5 102.088 87.6167 101.888 87.75C101.688 87.8833 101.538 88.0167 101.438 88.15C101.338 88.3167 101.255 88.4833 101.188 88.65C101.155 88.8167 101.138 88.9833 101.138 89.15C101.138 89.35 101.155 89.55 101.188 89.75C101.255 89.9167 101.338 90.0667 101.438 90.2C101.538 90.3667 101.688 90.5167 101.888 90.65C102.088 90.75 102.338 90.85 102.638 90.95C102.905 91.05 103.238 91.15 103.638 91.25C104.038 91.3167 104.505 91.3667 105.038 91.4C105.538 91.4667 106.122 91.5167 106.788 91.55C107.455 91.55 108.205 91.55 109.038 91.55ZM109.038 98.25C107.305 98.25 105.722 98.1833 104.288 98.05C102.855 97.95 101.588 97.8 100.488 97.6C99.3216 97.4 98.2716 97.15 97.3383 96.85C96.4383 96.5167 95.6716 96.15 95.0383 95.75C94.3383 95.35 93.7383 94.9167 93.2383 94.45C92.7716 93.9833 92.4216 93.45 92.1883 92.85C91.8883 92.3167 91.6716 91.75 91.5383 91.15C91.4049 90.5167 91.3383 89.85 91.3383 89.15C91.3383 88.55 91.4049 87.95 91.5383 87.35C91.6716 86.75 91.8883 86.1667 92.1883 85.6C92.4549 85.0667 92.8216 84.5667 93.2883 84.1C93.7883 83.6 94.3883 83.1333 95.0883 82.7C95.7549 82.3 96.5383 81.95 97.4383 81.65C98.3383 81.3167 99.3716 81.0167 100.538 80.75C101.638 80.55 102.905 80.3833 104.338 80.25C105.772 80.1167 107.338 80.05 109.038 80.05C110.705 80.05 112.238 80.1167 113.638 80.25C115.038 80.3833 116.322 80.55 117.488 80.75C118.588 81.0167 119.588 81.3167 120.488 81.65C121.422 81.95 122.238 82.3 122.938 82.7C123.605 83.1333 124.188 83.6 124.688 84.1C125.188 84.5667 125.588 85.0667 125.888 85.6C126.155 86.1667 126.355 86.75 126.488 87.35C126.655 87.95 126.738 88.55 126.738 89.15C126.738 89.85 126.655 90.5167 126.488 91.15C126.355 91.75 126.155 92.3167 125.888 92.85C125.588 93.45 125.188 93.9833 124.688 94.45C124.222 94.9167 123.655 95.35 122.988 95.75C122.288 96.15 121.488 96.5167 120.588 96.85C119.688 97.15 118.688 97.4 117.588 97.6C116.422 97.8 115.122 97.95 113.688 98.05C112.288 98.1833 110.738 98.25 109.038 98.25Z" fill="#1D1D1B"/>
</svg>
