<svg width="48" height="25" viewBox="0 0 48 25" fill="none" xmlns="http://www.w3.org/2000/svg">
<g clip-path="url(#clip0_1743_17863)">
<path d="M0 11.1764V8.89872H11.6057V11.1764H0ZM0.113459 5.72147C0.815114 5.37921 1.44511 5.00061 2.00046 4.58263C2.55582 4.16465 3.04548 3.71335 3.46647 3.23177C3.87851 2.75624 4.195 2.25042 4.42192 1.70826C4.64585 1.1661 4.77125 0.59668 4.80111 0H7.4256C7.40768 0.399806 7.36588 0.781439 7.3002 1.15399C7.23451 1.5235 7.14195 1.88091 7.01954 2.22316C7.44053 2.4685 7.84659 2.71989 8.24071 2.97129C8.63483 3.22268 9.00208 3.48013 9.34843 3.74667C9.68582 4.03138 10.0352 4.34032 10.3994 4.67349C10.7637 5.00666 11.1399 5.37012 11.5221 5.76993L9.86497 7.6781C9.53654 7.30858 9.20213 6.95723 8.85578 6.62406C8.50943 6.29089 8.15413 5.97286 7.78986 5.66998C7.45247 5.43373 7.12404 5.20354 6.80157 4.98546C6.47911 4.76739 6.15366 4.56445 5.82523 4.37364L5.65803 4.58868C5.38632 4.92186 5.0967 5.23686 4.78917 5.53671C4.48163 5.83657 4.1532 6.11219 3.80685 6.36964C3.44259 6.64526 3.06937 6.89363 2.69017 7.11776C2.31098 7.3419 1.92582 7.5418 1.5317 7.72353L0.113459 5.72147Z" fill="#0059FF"/>
<path d="M15.1768 0.618055V8.68081H17.2071C17.3952 8.68081 17.5803 8.67778 17.7684 8.6687C17.9566 8.65961 18.1417 8.64144 18.3298 8.61418C18.5179 8.60509 18.6881 8.58692 18.8433 8.55966C18.9986 8.5324 19.1449 8.49605 19.2763 8.45062V10.4557C19.1509 10.5284 19.0105 10.5829 18.8553 10.6253C18.7 10.6647 18.5268 10.695 18.3417 10.7132C18.1357 10.7404 17.9357 10.7586 17.7416 10.7677C17.5445 10.7768 17.3504 10.7798 17.1534 10.7798H12.7046V0.618055H15.1768ZM24.164 4.05881V6.40313C24.1102 6.40313 24.0535 6.40313 23.9908 6.40919C23.9281 6.41525 23.8624 6.4213 23.7907 6.43039C23.7191 6.43039 23.6474 6.43645 23.5758 6.4425C23.5041 6.45159 23.4295 6.45462 23.3488 6.45462C23.1966 6.48188 23.0533 6.50914 22.9159 6.5364C22.7786 6.56366 22.6472 6.59092 22.5218 6.61818V11.3462H20.0496V0.442383H22.5218V4.30415C22.6472 4.2678 22.7786 4.23448 22.9159 4.20117C23.0533 4.17088 23.2025 4.14059 23.3638 4.11333C23.4444 4.11333 23.522 4.1103 23.5967 4.10122C23.6713 4.09213 23.74 4.0891 23.8027 4.0891C23.8743 4.08001 23.937 4.07396 23.9968 4.0679C24.0535 4.06487 24.1102 4.06184 24.164 4.06184V4.05881Z" fill="#333333"/>
<path d="M28.8722 0.447791C29.0991 0.496253 29.3201 0.568945 29.532 0.656781C29.7291 0.765819 29.9112 0.896059 30.0784 1.05053C30.2486 1.205 30.4069 1.3837 30.5591 1.59269C30.6935 1.81077 30.8189 2.0561 30.9324 2.33173C31.0488 2.60735 31.1473 2.9072 31.225 3.23129C31.2966 3.57355 31.3534 3.94912 31.3922 4.35499C31.431 4.76085 31.4519 5.20003 31.4519 5.6695C31.4519 6.13897 31.431 6.60541 31.3922 7.01733C31.3534 7.42925 31.2966 7.79574 31.225 8.12286C31.1444 8.46512 31.0458 8.77406 30.9324 9.04362C30.8159 9.31319 30.6905 9.5555 30.5591 9.76146C30.4069 9.97953 30.2486 10.1643 30.0784 10.3157C29.9082 10.4702 29.7261 10.5914 29.532 10.6822C29.3201 10.7822 29.0991 10.8549 28.8722 10.9003C28.6453 10.9457 28.4064 10.9669 28.1586 10.9669C27.8929 10.9669 27.645 10.9457 27.4181 10.9003C27.1912 10.8549 26.9792 10.7822 26.7851 10.6822C26.5702 10.5914 26.3791 10.4702 26.2029 10.3157C26.0297 10.1613 25.8745 9.9765 25.7431 9.76146C25.5908 9.55247 25.4624 9.31319 25.355 9.04362C25.2475 8.77406 25.1579 8.46512 25.0892 8.12286C25.0086 7.79877 24.9519 7.42925 24.916 7.01733C24.8802 6.60541 24.8623 6.15714 24.8623 5.6695C24.8623 5.18186 24.8802 4.76085 24.916 4.35499C24.9519 3.94912 25.0086 3.57355 25.0892 3.23129C25.1609 2.9072 25.2505 2.60735 25.355 2.33173C25.4624 2.0561 25.5908 1.81077 25.7431 1.59269C25.8775 1.3837 26.0297 1.205 26.2029 1.05053C26.3761 0.896059 26.5702 0.765819 26.7851 0.656781C26.9822 0.565916 27.1912 0.496253 27.4181 0.447791C27.645 0.39933 27.8929 0.37207 28.1586 0.37207C28.4064 0.37207 28.6453 0.396301 28.8722 0.447791ZM27.9496 2.6437C27.8839 2.6649 27.8242 2.69216 27.7704 2.71942C27.6988 2.76485 27.6361 2.8224 27.5823 2.88903C27.5286 2.95567 27.4808 3.0435 27.436 3.15254C27.3823 3.26158 27.3405 3.39485 27.3106 3.55235C27.2808 3.70985 27.2509 3.88552 27.224 4.07331C27.1882 4.28229 27.1643 4.51854 27.1494 4.78508C27.1375 5.05162 27.1285 5.34844 27.1285 5.67253C27.1285 6.01479 27.1345 6.3207 27.1494 6.58724C27.1613 6.85378 27.1882 7.08094 27.224 7.27175C27.2509 7.48074 27.2808 7.65945 27.3106 7.81392C27.3405 7.96839 27.3853 8.09863 27.436 8.20766C27.4808 8.3167 27.5286 8.40757 27.5823 8.47723C27.6361 8.54992 27.6988 8.59838 27.7704 8.62564C27.8242 8.67108 27.8839 8.70136 27.9496 8.71348C28.0153 8.7256 28.0839 8.73468 28.1556 8.73468C28.2093 8.73468 28.2661 8.72862 28.3288 8.71348C28.3915 8.70136 28.4572 8.67108 28.5288 8.62564C28.5826 8.59838 28.6393 8.54992 28.696 8.47723C28.7528 8.40454 28.8095 8.31367 28.8632 8.20766C28.8991 8.09863 28.9379 7.96839 28.9767 7.81392C29.0155 7.65945 29.0543 7.48074 29.0901 7.27175C29.117 7.08094 29.1379 6.85378 29.1558 6.58724C29.1738 6.3207 29.1827 6.01479 29.1827 5.67253C29.1827 5.34844 29.1738 5.05162 29.1558 4.78508C29.1379 4.51854 29.117 4.28229 29.0901 4.07331C29.0543 3.88249 29.0155 3.70985 28.9767 3.55235C28.9379 3.39485 28.8991 3.26158 28.8632 3.15254C28.8095 3.0435 28.7528 2.95567 28.696 2.88903C28.6393 2.8224 28.5826 2.76485 28.5288 2.71942C28.4572 2.69216 28.3915 2.66793 28.3288 2.6437C28.2661 2.62249 28.2093 2.61038 28.1556 2.61038C28.0839 2.61038 28.0153 2.62249 27.9496 2.6437ZM32.47 11.3486V0.441734H34.9423V11.3486H32.47Z" fill="#333333"/>
<path d="M37.0118 2.58377H36.4116V0.551421H42.837V2.58377H42.0905V8.73533H42.837V10.7677H36.4116V8.73533H37.0118V2.58377ZM39.9498 8.73533V2.58377H39.1496V8.73533H39.9498ZM44.2911 6.47279C44.2194 6.50005 44.1388 6.51822 44.0432 6.52731C43.9507 6.5364 43.8462 6.53943 43.7297 6.53943C43.5954 6.54851 43.464 6.55154 43.3356 6.55154H42.7534V4.3829H44.2881V0.442383H46.6259V11.3644H44.2881V6.47279H44.2911Z" fill="#333333"/>
<path d="M0.815214 15.2255H0.280762V13.3022H5.894V15.2255H5.34761V17.7727H5.894V19.693H0.280762V17.7727H0.815214V15.2255ZM9.45901 24.736V22.8279H1.10782V20.5502H11.9133V24.736H9.45901ZM3.4397 17.7727V15.2255H2.72312V17.7727H3.4397ZM9.73967 17.588C9.61725 17.6152 9.49185 17.6364 9.36047 17.6516C9.2291 17.6667 9.09474 17.6728 8.95441 17.6728V20.0504H6.77779V13.2598H8.95441V15.4375H9.73967V13.2598H11.9163V20.0504H9.73967V17.588Z" fill="#0059FF"/>
<path d="M20.9989 19.2511C21.2468 19.2511 21.4886 19.2511 21.7215 19.2451C21.9544 19.242 22.1753 19.2299 22.3903 19.2117C22.5874 19.2117 22.7755 19.1996 22.9576 19.1784C23.1397 19.1572 23.3129 19.13 23.4711 19.1027V21.0412C23.3457 21.0866 23.2024 21.126 23.0382 21.1562C22.874 21.1865 22.6889 21.2077 22.4829 21.2168C22.2679 21.2441 22.044 21.2623 21.8081 21.2713C21.5722 21.2804 21.3304 21.2835 21.0795 21.2835H19.6225V22.5313H23.9369V24.5637H12.8926V22.5313H17.207V21.2835H13.5465V13.8174H23.2681V15.8497H15.8156V16.5282H23.1338V18.5605H15.8156V19.2511H20.9989Z" fill="#333333"/>
<path d="M25.1519 17.9366H28.905V16.0254H25.2176V13.9264H31.1742V19.9689H27.4211V22.0407H31.5474V24.1397H25.1489V17.9336L25.1519 17.9366ZM32.4969 24.7242V13.8174H34.9691V24.7242H32.4969Z" fill="#333333"/>
<path d="M41.2308 16.1808V15.1934C39.2573 15.4175 37.6778 16.9895 37.415 18.9794H38.3914C38.6392 17.5286 39.7887 16.3897 41.2308 16.1808Z" fill="#0059FF"/>
<path d="M45.0348 18.9823H46.0111C45.7484 16.9924 44.1689 15.4204 42.1953 15.1963V16.1837C43.6374 16.3957 44.787 17.5345 45.0348 18.9823Z" fill="#0059FF"/>
<path d="M38.3615 19.9609H37.3911C37.5732 22.0417 39.1885 23.7106 41.2278 23.9408V22.9534C39.723 22.7323 38.5347 21.4996 38.3615 19.9609Z" fill="#0059FF"/>
<path d="M42.1953 22.9534V23.9408C44.2346 23.7106 45.8499 22.0417 46.032 19.9609H45.0616C44.8885 21.5026 43.7001 22.7353 42.1953 22.9534Z" fill="#0059FF"/>
<path d="M41.7145 17.6191C40.6515 17.6191 39.7856 18.4975 39.7856 19.5758C39.7856 20.654 40.6515 21.5324 41.7145 21.5324C42.7774 21.5324 43.6433 20.654 43.6433 19.5758C43.6433 18.4975 42.7774 17.6191 41.7145 17.6191ZM41.7145 20.5511C41.183 20.5511 40.753 20.1119 40.753 19.5758C40.753 19.0397 41.186 18.6005 41.7145 18.6005C42.2429 18.6005 42.6759 19.0397 42.6759 19.5758C42.6759 20.1119 42.2429 20.5511 41.7145 20.5511Z" fill="#0059FF"/>
<path d="M42.1954 15.1963V14.642C42.1954 14.3725 41.9804 14.1514 41.7117 14.1514C41.443 14.1514 41.228 14.3694 41.228 14.642V15.1963C41.3863 15.1781 41.5475 15.1691 41.7117 15.1691C41.8759 15.1691 42.0372 15.1781 42.1954 15.1963Z" fill="#0059FF"/>
<path d="M41.7147 16.1473C41.8789 16.1473 42.0401 16.1594 42.1983 16.1836V15.1962C42.0401 15.178 41.8789 15.1689 41.7147 15.1689C41.5504 15.1689 41.3892 15.178 41.231 15.1962V16.1836C41.3892 16.1594 41.5504 16.1473 41.7147 16.1473Z" fill="#0059FF"/>
<path d="M41.231 23.9404V24.5098C41.231 24.7794 41.4459 25.0005 41.7147 25.0005C41.9834 25.0005 42.1983 24.7824 42.1983 24.5098V23.9404C42.0401 23.9586 41.8789 23.9677 41.7147 23.9677C41.5504 23.9677 41.3892 23.9586 41.231 23.9404Z" fill="#0059FF"/>
<path d="M41.7147 22.9895C41.5504 22.9895 41.3892 22.9774 41.231 22.9531V23.9405C41.3892 23.9587 41.5504 23.9678 41.7147 23.9678C41.8789 23.9678 42.0401 23.9587 42.1983 23.9405V22.9531C42.0401 22.9774 41.8789 22.9895 41.7147 22.9895Z" fill="#0059FF"/>
<path d="M46.6352 18.9825H46.0142C46.038 19.1733 46.053 19.3702 46.053 19.5701C46.053 19.7034 46.047 19.8336 46.0351 19.9608H46.6352C46.9009 19.9608 47.1189 19.7428 47.1189 19.4702C47.1189 19.1976 46.9039 18.9795 46.6352 18.9795V18.9825Z" fill="#0059FF"/>
<path d="M46.011 18.9824H45.0347C45.0675 19.1732 45.0854 19.3701 45.0854 19.57C45.0854 19.7033 45.0765 19.8335 45.0615 19.9607H46.0319C46.0439 19.8305 46.0498 19.7003 46.0498 19.57C46.0498 19.3701 46.0349 19.1763 46.011 18.9824Z" fill="#0059FF"/>
<path d="M37.4151 18.9824H36.8567C36.591 18.9824 36.373 19.2005 36.373 19.4731C36.373 19.7457 36.588 19.9638 36.8567 19.9638H37.3942C37.3822 19.8335 37.3763 19.7033 37.3763 19.573C37.3763 19.3731 37.3912 19.1793 37.4151 18.9855V18.9824Z" fill="#0059FF"/>
<path d="M38.3409 19.5671C38.3409 19.3672 38.3588 19.1703 38.3916 18.9795H37.4153C37.3914 19.1703 37.3765 19.3672 37.3765 19.5671C37.3765 19.7004 37.3824 19.8306 37.3944 19.9578H38.3648C38.3498 19.8276 38.3409 19.6973 38.3409 19.5671Z" fill="#0059FF"/>
<path d="M41.8968 21.0413C42.6949 21.0413 43.3419 20.385 43.3419 19.5753C43.3419 18.7657 42.6949 18.1094 41.8968 18.1094C41.0987 18.1094 40.4517 18.7657 40.4517 19.5753C40.4517 20.385 41.0987 21.0413 41.8968 21.0413Z" fill="#0059FF"/>
</g>
<defs>
<clipPath id="clip0_1743_17863">
<rect width="47.1154" height="25" fill="white"/>
</clipPath>
</defs>
</svg>
