<svg width="68" height="68" viewBox="0 0 68 68" fill="none" xmlns="http://www.w3.org/2000/svg">
<circle cx="34" cy="34" r="33.5" fill="white" stroke="#E6E6E6"/>
<g clip-path="url(#clip0_3073_24141)">
<path d="M17.3955 33.4792V31.8129H25.773V33.4792H17.3955ZM17.4774 29.4885C17.9839 29.2381 18.4387 28.9611 18.8395 28.6553C19.2404 28.3495 19.5939 28.0194 19.8978 27.667C20.1952 27.3192 20.4236 26.9491 20.5874 26.5525C20.7491 26.1558 20.8396 25.7393 20.8612 25.3027H22.7556C22.7427 25.5952 22.7125 25.8744 22.6651 26.147C22.6177 26.4173 22.5509 26.6788 22.4625 26.9292C22.7664 27.1087 23.0595 27.2926 23.344 27.4765C23.6285 27.6604 23.8936 27.8487 24.1436 28.0437C24.3872 28.252 24.6393 28.4781 24.9023 28.7218C25.1652 28.9655 25.4368 29.2314 25.7126 29.5239L24.5165 30.9199C24.2794 30.6496 24.038 30.3925 23.788 30.1488C23.538 29.9051 23.2815 29.6724 23.0186 29.4508C22.775 29.278 22.5379 29.1096 22.3052 28.95C22.0724 28.7905 21.8375 28.642 21.6004 28.5024L21.4797 28.6598C21.2836 28.9035 21.0745 29.1339 20.8525 29.3533C20.6305 29.5727 20.3935 29.7743 20.1435 29.9627C19.8805 30.1643 19.6111 30.346 19.3374 30.51C19.0637 30.674 18.7856 30.8202 18.5012 30.9532L17.4774 29.4885Z" fill="#0059FF"/>
<path d="M28.351 25.7545V31.6531H29.8165C29.9523 31.6531 30.0859 31.6509 30.2217 31.6442C30.3575 31.6376 30.4911 31.6243 30.6269 31.6043C30.7627 31.5977 30.8855 31.5844 30.9976 31.5645C31.1097 31.5445 31.2153 31.5179 31.3101 31.4847V32.9516C31.2196 33.0048 31.1183 33.0447 31.0062 33.0757C30.8942 33.1045 30.7692 33.1266 30.6355 33.1399C30.4868 33.1599 30.3424 33.1732 30.2023 33.1798C30.0601 33.1865 29.92 33.1887 29.7777 33.1887H26.5664V25.7545H28.351ZM34.8383 28.2717V29.9868C34.7995 29.9868 34.7585 29.9868 34.7133 29.9912C34.668 29.9956 34.6206 30.0001 34.5689 30.0067C34.5171 30.0067 34.4654 30.0112 34.4137 30.0156C34.362 30.0222 34.3081 30.0244 34.2499 30.0244C34.14 30.0444 34.0365 30.0643 33.9374 30.0843C33.8382 30.1042 33.7434 30.1242 33.6529 30.1441V33.603H31.8683V25.626H33.6529V28.4512C33.7434 28.4246 33.8382 28.4002 33.9374 28.3759C34.0365 28.3537 34.1443 28.3315 34.2607 28.3116C34.3189 28.3116 34.3749 28.3094 34.4288 28.3027C34.4827 28.2961 34.5322 28.2939 34.5775 28.2939C34.6292 28.2872 34.6745 28.2828 34.7176 28.2784C34.7585 28.2761 34.7995 28.2739 34.8383 28.2739V28.2717Z" fill="#333333"/>
<path d="M38.2373 25.6306C38.4011 25.666 38.5606 25.7192 38.7136 25.7835C38.8558 25.8633 38.9873 25.9585 39.108 26.0715C39.2309 26.1846 39.3451 26.3153 39.455 26.4682C39.552 26.6277 39.6425 26.8072 39.7244 27.0089C39.8085 27.2105 39.8796 27.4299 39.9356 27.667C39.9873 27.9174 40.0283 28.1921 40.0563 28.489C40.0843 28.786 40.0994 29.1073 40.0994 29.4507C40.0994 29.7942 40.0843 30.1354 40.0563 30.4368C40.0283 30.7381 39.9873 31.0063 39.9356 31.2456C39.8774 31.496 39.8063 31.722 39.7244 31.9192C39.6403 32.1164 39.5498 32.2937 39.455 32.4443C39.3451 32.6039 39.2309 32.739 39.108 32.8498C38.9852 32.9629 38.8537 33.0515 38.7136 33.118C38.5606 33.1911 38.4011 33.2443 38.2373 33.2775C38.0735 33.3107 37.9011 33.3262 37.7222 33.3262C37.5304 33.3262 37.3515 33.3107 37.1877 33.2775C37.0239 33.2443 36.8708 33.1911 36.7308 33.118C36.5756 33.0515 36.4376 32.9629 36.3105 32.8498C36.1855 32.7368 36.0734 32.6017 35.9786 32.4443C35.8687 32.2914 35.776 32.1164 35.6984 31.9192C35.6208 31.722 35.5561 31.496 35.5066 31.2456C35.4484 31.0085 35.4074 30.7381 35.3816 30.4368C35.3557 30.1354 35.3428 29.8075 35.3428 29.4507C35.3428 29.094 35.3557 28.786 35.3816 28.489C35.4074 28.1921 35.4484 27.9174 35.5066 27.667C35.5583 27.4299 35.623 27.2105 35.6984 27.0089C35.776 26.8072 35.8687 26.6277 35.9786 26.4682C36.0756 26.3153 36.1855 26.1846 36.3105 26.0715C36.4355 25.9585 36.5756 25.8633 36.7308 25.7835C36.873 25.717 37.0239 25.666 37.1877 25.6306C37.3515 25.5951 37.5304 25.5752 37.7222 25.5752C37.9011 25.5752 38.0735 25.5929 38.2373 25.6306ZM37.5713 27.2371C37.5239 27.2526 37.4808 27.2725 37.442 27.2925C37.3903 27.3257 37.345 27.3678 37.3062 27.4166C37.2674 27.4653 37.2329 27.5296 37.2006 27.6093C37.1618 27.6891 37.1316 27.7866 37.1101 27.9018C37.0885 28.0171 37.067 28.1456 37.0476 28.283C37.0217 28.4359 37.0045 28.6087 36.9937 28.8037C36.9851 28.9987 36.9786 29.2158 36.9786 29.4529C36.9786 29.7033 36.9829 29.9271 36.9937 30.1221C37.0023 30.3171 37.0217 30.4833 37.0476 30.6229C37.067 30.7758 37.0885 30.9065 37.1101 31.0195C37.1316 31.1326 37.164 31.2278 37.2006 31.3076C37.2329 31.3874 37.2674 31.4539 37.3062 31.5048C37.345 31.558 37.3903 31.5935 37.442 31.6134C37.4808 31.6466 37.5239 31.6688 37.5713 31.6777C37.6187 31.6865 37.6683 31.6932 37.72 31.6932C37.7588 31.6932 37.7998 31.6887 37.845 31.6777C37.8903 31.6688 37.9377 31.6466 37.9894 31.6134C38.0282 31.5935 38.0692 31.558 38.1101 31.5048C38.1511 31.4516 38.192 31.3852 38.2308 31.3076C38.2567 31.2278 38.2847 31.1326 38.3127 31.0195C38.3407 30.9065 38.3688 30.7758 38.3946 30.6229C38.414 30.4833 38.4291 30.3171 38.442 30.1221C38.455 29.9271 38.4614 29.7033 38.4614 29.4529C38.4614 29.2158 38.455 28.9987 38.442 28.8037C38.4291 28.6087 38.414 28.4359 38.3946 28.283C38.3688 28.1434 38.3407 28.0171 38.3127 27.9018C38.2847 27.7866 38.2567 27.6891 38.2308 27.6093C38.192 27.5296 38.1511 27.4653 38.1101 27.4166C38.0692 27.3678 38.0282 27.3257 37.9894 27.2925C37.9377 27.2725 37.8903 27.2548 37.845 27.2371C37.7998 27.2216 37.7588 27.2127 37.72 27.2127C37.6683 27.2127 37.6187 27.2216 37.5713 27.2371ZM40.8344 33.6054V25.6262H42.6189V33.6054H40.8344Z" fill="#333333"/>
<path d="M44.1119 27.1926H43.6787V25.7057H48.3168V27.1926H47.778V31.693H48.3168V33.1798H43.6787V31.693H44.1119V27.1926ZM46.2327 31.693V27.1926H45.6551V31.693H46.2327ZM49.3664 30.0377C49.3147 30.0577 49.2565 30.071 49.1875 30.0776C49.1207 30.0843 49.0453 30.0865 48.9612 30.0865C48.8643 30.0931 48.7694 30.0954 48.6767 30.0954H48.2565V28.5088H49.3643V25.626H51.0518V33.6163H49.3643V30.0377H49.3664Z" fill="#333333"/>
<path d="M17.9834 36.442H17.5977V35.0349H21.6495V36.442H21.2551V38.3055H21.6495V39.7104H17.5977V38.3055H17.9834V36.442ZM24.2229 43.3998V42.0038H18.1947V40.3375H25.9945V43.3998H24.2229ZM19.8779 38.3055V36.442H19.3607V38.3055H19.8779ZM24.4255 38.1704C24.3371 38.1903 24.2466 38.2058 24.1518 38.2169C24.057 38.228 23.96 38.2324 23.8587 38.2324V39.9718H22.2875V35.0039H23.8587V36.5971H24.4255V35.0039H25.9967V39.9718H24.4255V38.1704Z" fill="#0059FF"/>
<path d="M32.5537 39.3864C32.7325 39.3864 32.9071 39.3864 33.0752 39.3819C33.2433 39.3797 33.4028 39.3709 33.558 39.3576C33.7003 39.3576 33.836 39.3487 33.9675 39.3332C34.099 39.3177 34.224 39.2977 34.3382 39.2778V40.6959C34.2477 40.7292 34.1442 40.758 34.0257 40.7801C33.9072 40.8023 33.7735 40.8178 33.6248 40.8245C33.4696 40.8444 33.308 40.8577 33.1377 40.8643C32.9675 40.871 32.7929 40.8732 32.6119 40.8732H31.5601V41.7861H34.6744V43.273H26.7021V41.7861H29.8165V40.8732H27.1741V35.4111H34.1917V36.898H28.8121V37.3943H34.0947V38.8812H28.8121V39.3864H32.5537Z" fill="#333333"/>
<path d="M35.551 38.4247H38.2601V37.0265H35.5984V35.4909H39.8981V39.9115H37.189V41.4272H40.1675V42.9628H35.5488V38.4225L35.551 38.4247ZM40.8529 43.3904V35.4111H42.6375V43.3904H40.8529Z" fill="#333333"/>
<path d="M47.1568 37.1403V36.418C45.7321 36.5819 44.592 37.732 44.4023 39.1878H45.1071C45.286 38.1264 46.1158 37.2932 47.1568 37.1403Z" fill="#0059FF"/>
<path d="M49.9032 39.1897H50.6079C50.4183 37.7339 49.2781 36.5839 47.8535 36.4199V37.1423C48.8945 37.2974 49.7243 38.1306 49.9032 39.1897Z" fill="#0059FF"/>
<path d="M45.0862 39.9053H44.3857C44.5172 41.4276 45.6832 42.6485 47.1552 42.8169V42.0945C46.069 41.9328 45.2112 41.0309 45.0862 39.9053Z" fill="#0059FF"/>
<path d="M47.8535 42.0945V42.8169C49.3256 42.6485 50.4915 41.4276 50.623 39.9053H49.9226C49.7976 41.0331 48.9398 41.935 47.8535 42.0945Z" fill="#0059FF"/>
<path d="M47.5066 38.1924C46.7393 38.1924 46.1143 38.835 46.1143 39.6238C46.1143 40.4127 46.7393 41.0553 47.5066 41.0553C48.2738 41.0553 48.8988 40.4127 48.8988 39.6238C48.8988 38.835 48.2738 38.1924 47.5066 38.1924ZM47.5066 40.3373C47.1229 40.3373 46.8126 40.016 46.8126 39.6238C46.8126 39.2316 47.1251 38.9103 47.5066 38.9103C47.888 38.9103 48.2005 39.2316 48.2005 39.6238C48.2005 40.016 47.888 40.3373 47.5066 40.3373Z" fill="#0059FF"/>
<path d="M47.8536 36.4197V36.0142C47.8536 35.817 47.6984 35.6553 47.5044 35.6553C47.3105 35.6553 47.1553 35.8148 47.1553 36.0142V36.4197C47.2695 36.4064 47.3859 36.3998 47.5044 36.3998C47.623 36.3998 47.7393 36.4064 47.8536 36.4197Z" fill="#0059FF"/>
<path d="M47.5064 37.1151C47.6249 37.1151 47.7413 37.124 47.8555 37.1417V36.4194C47.7413 36.4061 47.6249 36.3994 47.5064 36.3994C47.3878 36.3994 47.2715 36.4061 47.1572 36.4194V37.1417C47.2715 37.124 47.3878 37.1151 47.5064 37.1151Z" fill="#0059FF"/>
<path d="M47.1572 42.8174V43.234C47.1572 43.4312 47.3124 43.5929 47.5064 43.5929C47.7004 43.5929 47.8555 43.4334 47.8555 43.234V42.8174C47.7413 42.8307 47.6249 42.8373 47.5064 42.8373C47.3878 42.8373 47.2715 42.8307 47.1572 42.8174Z" fill="#0059FF"/>
<path d="M47.5064 42.1213C47.3878 42.1213 47.2715 42.1125 47.1572 42.0947V42.8171C47.2715 42.8304 47.3878 42.837 47.5064 42.837C47.6249 42.837 47.7413 42.8304 47.8555 42.8171V42.0947C47.7413 42.1125 47.6249 42.1213 47.5064 42.1213Z" fill="#0059FF"/>
<path d="M51.0577 39.1897H50.6094C50.6266 39.3293 50.6374 39.4733 50.6374 39.6196C50.6374 39.7171 50.6331 39.8124 50.6245 39.9054H51.0577C51.2495 39.9054 51.4068 39.7459 51.4068 39.5465C51.4068 39.347 51.2516 39.1875 51.0577 39.1875V39.1897Z" fill="#0059FF"/>
<path d="M50.6071 39.1895H49.9023C49.9261 39.3291 49.939 39.4731 49.939 39.6193C49.939 39.7168 49.9325 39.8121 49.9217 39.9052H50.6222C50.6308 39.8099 50.6351 39.7146 50.6351 39.6193C50.6351 39.4731 50.6244 39.3313 50.6071 39.1895Z" fill="#0059FF"/>
<path d="M44.4026 39.1895H43.9995C43.8077 39.1895 43.6504 39.349 43.6504 39.5484C43.6504 39.7478 43.8056 39.9074 43.9995 39.9074H44.3875C44.3789 39.8121 44.3746 39.7168 44.3746 39.6215C44.3746 39.4753 44.3853 39.3335 44.4026 39.1917V39.1895Z" fill="#0059FF"/>
<path d="M45.0711 39.6174C45.0711 39.4711 45.0841 39.3271 45.1078 39.1875H44.403C44.3858 39.3271 44.375 39.4711 44.375 39.6174C44.375 39.7149 44.3793 39.8102 44.3879 39.9032H45.0884C45.0776 39.8079 45.0711 39.7127 45.0711 39.6174Z" fill="#0059FF"/>
<path d="M47.6379 40.6967C48.214 40.6967 48.681 40.2165 48.681 39.6242C48.681 39.0319 48.214 38.5518 47.6379 38.5518C47.0618 38.5518 46.5947 39.0319 46.5947 39.6242C46.5947 40.2165 47.0618 40.6967 47.6379 40.6967Z" fill="#0059FF"/>
</g>
<defs>
<clipPath id="clip0_3073_24141">
<rect width="34.0099" height="18.2897" fill="white" transform="translate(17.3955 25.3027)"/>
</clipPath>
</defs>
</svg>
