<svg width="21" height="22" viewBox="0 0 21 22" fill="none" xmlns="http://www.w3.org/2000/svg">
<path fill-rule="evenodd" clip-rule="evenodd" d="M18.7147 -6.66909e-08C17.9423 -1.03523e-07 17.3161 0.62616 17.3161 1.39857L17.3161 20.0461C17.3161 20.8185 17.9423 21.4447 18.7147 21.4447C19.4871 21.4447 20.1133 20.8185 20.1133 20.0461L20.1133 1.39857C20.1133 0.62616 19.4871 -2.98586e-08 18.7147 -6.66909e-08Z" fill="#808080"/>
<path fill-rule="evenodd" clip-rule="evenodd" d="M14.0887 8.29427C15.5325 9.59092 15.5324 11.8534 14.0887 13.1501L6.15711 20.2734C4.05631 22.1602 0.713291 20.6692 0.713291 17.8455L0.713292 3.59882C0.713292 0.775148 4.05632 -0.715799 6.15712 1.17093L14.0887 8.29427ZM12.2197 11.069C12.4259 10.8838 12.4259 10.5606 12.2197 10.3753L4.28812 3.25198C3.988 2.98245 3.51043 3.19545 3.51043 3.59882L3.51043 17.8455C3.51043 18.2489 3.988 18.4619 4.28811 18.1924L12.2197 11.069Z" fill="#808080"/>
</svg>
