<svg width="284" height="133" viewBox="0 0 284 133" fill="none" xmlns="http://www.w3.org/2000/svg">
<path d="M113.657 72.8864C111.407 72.8864 109.475 72.0909 107.862 70.5C106.271 68.8864 105.475 66.9545 105.475 64.7045C105.475 62.4773 106.271 60.5682 107.862 58.9773C109.475 57.3864 111.407 56.5909 113.657 56.5909C115.839 56.5909 117.748 57.3864 119.384 58.9773C121.021 60.5682 121.839 62.4773 121.839 64.7045C121.839 66.2045 121.453 67.5795 120.68 68.8295C119.93 70.0568 118.941 71.0455 117.714 71.7955C116.487 72.5227 115.134 72.8864 113.657 72.8864ZM113.657 36.2045C111.407 36.2045 109.475 35.4091 107.862 33.8182C106.271 32.2273 105.475 30.2955 105.475 28.0227C105.475 25.7955 106.271 23.8977 107.862 22.3295C109.475 20.7386 111.407 19.9432 113.657 19.9432C115.839 19.9432 117.748 20.7386 119.384 22.3295C121.021 23.8977 121.839 25.7955 121.839 28.0227C121.839 29.5455 121.453 30.9318 120.68 32.1818C119.93 33.4091 118.941 34.3864 117.714 35.1136C116.487 35.8409 115.134 36.2045 113.657 36.2045ZM155.346 44.0114C155.346 35.5568 156.471 27.7727 158.721 20.6591C160.993 13.5455 164.459 6.95454 169.118 0.886362H182.993C181.221 3.13636 179.573 5.88636 178.05 9.13636C176.527 12.3636 175.198 15.9091 174.062 19.7727C172.925 23.6364 172.039 27.6364 171.402 31.7727C170.766 35.8864 170.448 39.9659 170.448 44.0114C170.448 49.3977 170.993 54.8409 172.084 60.3409C173.198 65.8182 174.698 70.9091 176.584 75.6136C178.493 80.3182 180.63 84.1705 182.993 87.1705H169.118C164.459 81.1023 160.993 74.5114 158.721 67.3977C156.471 60.2841 155.346 52.4886 155.346 44.0114ZM17.1189 110.8V115.84H19.9989V118.288H17.1189V123.232H14.0949V110.8H17.1189ZM0.0309339 121.264C4.73493 119.992 7.42293 117.592 7.87893 114.64H1.03893V112.24H11.1669C11.1669 117.928 7.59093 121.912 1.23093 123.664L0.0309339 121.264ZM2.91093 127.792C2.88693 125.152 5.81493 123.448 10.1589 123.472C14.4789 123.448 17.3349 125.152 17.3589 127.792C17.3349 130.504 14.4789 132.184 10.1589 132.16C5.81493 132.184 2.88693 130.504 2.91093 127.792ZM5.88693 127.792C5.86293 129.112 7.47093 129.856 10.1589 129.856C12.7989 129.856 14.3829 129.112 14.3829 127.792C14.3829 126.496 12.7989 125.776 10.1589 125.776C7.47093 125.776 5.86293 126.496 5.88693 127.792ZM27.3491 112.24C30.7331 112.24 33.2531 114.424 33.2531 117.472C33.2531 120.544 30.7331 122.728 27.3491 122.704C23.9891 122.728 21.4211 120.544 21.4451 117.472C21.4211 114.424 23.9891 112.24 27.3491 112.24ZM20.5331 125.44C24.3491 125.416 29.6291 125.368 34.1651 124.72L34.4051 126.88C29.6771 127.816 24.6131 127.84 20.8691 127.84L20.5331 125.44ZM24.4211 117.472C24.3971 119.176 25.6691 120.136 27.3491 120.16C29.0531 120.136 30.3491 119.176 30.3731 117.472C30.3491 115.816 29.0531 114.832 27.3491 114.832C25.6691 114.832 24.3971 115.816 24.4211 117.472ZM35.4131 132.208V110.8H38.3891V132.208H35.4131ZM57.5473 110.8V119.008H60.5713V121.456H57.5473V132.112H54.5233V110.8H57.5473ZM40.4593 126.16C45.5233 123.616 48.2113 120.208 48.7873 115.456H41.7073V113.008H51.8353C51.8113 119.392 49.3393 124.912 42.1873 128.416L40.4593 126.16ZM71.7727 112.336C75.0127 112.336 77.3647 115.264 77.3887 119.92C77.3647 124.6 75.0127 127.552 71.7727 127.552C68.4847 127.552 66.1327 124.6 66.1567 119.92C66.1327 115.264 68.4847 112.336 71.7727 112.336ZM69.0367 119.92C69.0127 123.112 70.1407 124.816 71.7727 124.816C73.4287 124.816 74.5087 123.112 74.5087 119.92C74.5087 116.752 73.4287 115.024 71.7727 115.024C70.1407 115.024 69.0127 116.752 69.0367 119.92ZM79.8367 132.16V110.8H82.8607V118.864H85.9807V121.36H82.8607V132.16H79.8367ZM104.131 110.8V123.664H101.155V110.8H104.131ZM86.3709 121.024C89.8989 119.872 91.5309 117.112 91.5549 114.448H87.1389V112.048H98.8989V114.448H94.5789C94.6269 116.944 96.2109 119.56 99.6669 120.64L98.1789 122.944C95.7789 122.2 94.0989 120.664 93.1389 118.72C92.1549 120.832 90.4269 122.488 87.9069 123.328L86.3709 121.024ZM89.4909 127.024V124.624H104.131V132.16H101.155V127.024H89.4909ZM129.3 111.712V114.112H123.396C123.756 115.888 125.964 117.712 130.164 118.144L129.06 120.496C125.076 120.04 122.412 118.384 121.308 116.152C120.18 118.36 117.54 120.04 113.556 120.496L112.452 118.144C116.676 117.712 118.86 115.888 119.22 114.112H113.364V111.712H129.3ZM111.588 124.336V121.936H119.796V118.96H122.772V121.936H131.076V124.336H111.588ZM113.94 131.776V125.632H116.964V129.376H128.82V131.776H113.94ZM150.475 110.8V132.16H147.595V121.456H145.819V131.152H142.987V111.136H145.819V119.056H147.595V110.8H150.475ZM131.419 125.776C134.659 123.952 135.739 120.184 135.739 116.08V115.408H132.139V113.056H141.931V115.408H138.667V116.08C138.643 119.824 139.771 123.352 142.987 125.056L141.259 127.312C139.291 126.256 138.019 124.48 137.275 122.296C136.555 124.816 135.283 126.88 133.243 128.08L131.419 125.776ZM168.961 110.8V119.2H172.081V121.648H168.961V132.16H165.985V110.8H168.961ZM152.017 116.416V114.016H156.817V111.136H159.841V114.016H164.545V116.416H152.017ZM152.881 122.704C152.857 119.704 155.185 117.592 158.353 117.616C161.449 117.592 163.777 119.704 163.777 122.704C163.777 125.656 161.449 127.768 158.353 127.744C155.185 127.768 152.857 125.656 152.881 122.704ZM155.761 122.704C155.737 124.336 156.817 125.32 158.353 125.296C159.817 125.32 160.897 124.336 160.897 122.704C160.897 121.048 159.817 120.04 158.353 120.016C156.817 120.04 155.737 121.048 155.761 122.704ZM180.631 116.656C180.655 120.088 182.431 123.784 186.007 125.248L184.375 127.6C181.879 126.544 180.127 124.408 179.167 121.84C178.207 124.648 176.431 126.976 173.911 128.128L172.231 125.776C175.759 124.216 177.583 120.256 177.607 116.656V115.312H173.047V112.864H185.095V115.312H180.631V116.656ZM187.207 132.16V110.8H190.231V132.16H187.207ZM203.592 111.856C206.856 111.856 209.304 113.944 209.304 116.8C209.304 119.752 206.856 121.816 203.592 121.84C200.328 121.816 197.832 119.752 197.832 116.8C197.832 113.944 200.328 111.856 203.592 111.856ZM199.608 131.584V123.424H202.536V129.136C203.712 129.088 204.816 128.896 205.944 128.56L206.376 130.864C204.552 131.512 202.824 131.584 200.808 131.584H199.608ZM200.76 116.8C200.736 118.408 201.96 119.368 203.592 119.392C205.2 119.368 206.4 118.408 206.424 116.8C206.4 115.264 205.2 114.304 203.592 114.304C201.96 114.304 200.736 115.264 200.76 116.8ZM205.608 125.632V123.424H209.544V121.936H212.472V123.424H216.36V125.632H205.608ZM206.856 129.184C206.832 127.312 208.512 126.136 210.984 126.112C213.408 126.136 215.088 127.312 215.112 129.184C215.088 131.008 213.408 132.16 210.984 132.16C208.512 132.16 206.832 131.008 206.856 129.184ZM209.496 129.184C209.496 129.808 210.12 130.12 210.984 130.096C211.824 130.12 212.424 129.808 212.424 129.184C212.424 128.536 211.824 128.2 210.984 128.176C210.12 128.2 209.496 128.536 209.496 129.184ZM211.608 121.36V110.8H214.632V115.264H217.512V117.712H214.632V121.36H211.608ZM223.183 123.616V125.44H231.967V123.616H234.943V131.92H220.255V123.616H223.183ZM217.951 122.56V120.16H237.439V122.56H217.951ZM218.911 116.848C223.687 116.272 226.135 113.944 226.159 111.76V111.04H229.231V111.76C229.231 113.896 231.679 116.32 236.431 116.848L235.375 119.2C231.703 118.744 229.039 117.208 227.695 115.144C226.303 117.208 223.639 118.744 220.015 119.2L218.911 116.848ZM223.183 129.568H231.967V127.696H223.183V129.568ZM256.165 110.8V132.16H253.189V110.8H256.165ZM239.365 126.88V112.864H242.341V124.336C245.221 124.288 248.317 124.024 251.461 123.424L251.797 125.872C248.077 126.664 244.549 126.904 241.237 126.88H239.365ZM275.323 110.8V118.768H278.443V121.168H275.323V132.208H272.299V110.8H275.323ZM259.339 127.024V112.816H269.323V115.216H262.315V124.576C265.411 124.528 267.955 124.384 270.763 123.904L271.099 126.4C267.811 126.952 264.907 127.048 261.115 127.024H259.339ZM283.585 113.008L283.297 124.912H280.273L279.985 113.008H283.585ZM279.841 128.224C279.793 127.168 280.705 126.28 281.809 126.304C282.841 126.28 283.753 127.168 283.777 128.224C283.753 129.328 282.841 130.216 281.809 130.192C280.705 130.216 279.793 129.328 279.841 128.224Z" fill="#CCCCCC"/>
</svg>
