<svg width="305" height="133" viewBox="0 0 305 133" fill="none" xmlns="http://www.w3.org/2000/svg">
<path d="M124.657 72.8864C122.407 72.8864 120.475 72.0909 118.862 70.5C117.271 68.8864 116.475 66.9545 116.475 64.7045C116.475 62.4773 117.271 60.5682 118.862 58.9773C120.475 57.3864 122.407 56.5909 124.657 56.5909C126.839 56.5909 128.748 57.3864 130.384 58.9773C132.021 60.5682 132.839 62.4773 132.839 64.7045C132.839 66.2045 132.453 67.5795 131.68 68.8295C130.93 70.0568 129.941 71.0455 128.714 71.7955C127.487 72.5227 126.134 72.8864 124.657 72.8864ZM124.657 36.2045C122.407 36.2045 120.475 35.4091 118.862 33.8182C117.271 32.2273 116.475 30.2955 116.475 28.0227C116.475 25.7955 117.271 23.8977 118.862 22.3295C120.475 20.7386 122.407 19.9432 124.657 19.9432C126.839 19.9432 128.748 20.7386 130.384 22.3295C132.021 23.8977 132.839 25.7955 132.839 28.0227C132.839 29.5455 132.453 30.9318 131.68 32.1818C130.93 33.4091 129.941 34.3864 128.714 35.1136C127.487 35.8409 126.134 36.2045 124.657 36.2045ZM166.346 44.0114C166.346 35.5568 167.471 27.7727 169.721 20.6591C171.993 13.5455 175.459 6.95454 180.118 0.886362H193.993C192.221 3.13636 190.573 5.88636 189.05 9.13636C187.527 12.3636 186.198 15.9091 185.062 19.7727C183.925 23.6364 183.039 27.6364 182.402 31.7727C181.766 35.8864 181.448 39.9659 181.448 44.0114C181.448 49.3977 181.993 54.8409 183.084 60.3409C184.198 65.8182 185.698 70.9091 187.584 75.6136C189.493 80.3182 191.63 84.1705 193.993 87.1705H180.118C175.459 81.1023 171.993 74.5114 169.721 67.3977C167.471 60.2841 166.346 52.4886 166.346 44.0114ZM19.5331 132.156H16.7206V110.828H19.5331V132.156ZM14.9863 131.219H12.1972V121.422H8.705C8.08 122.672 7.25578 123.82 6.23235 124.867C5.20891 125.914 3.955 126.867 2.47063 127.727L0.783127 125.617C2.8925 124.359 4.46672 122.938 5.50578 121.352C6.55266 119.766 7.18156 117.906 7.3925 115.773H1.955V113.359H10.3691C10.3534 115.523 10.1073 117.422 9.63078 119.055H12.1972V111.297H14.9863V131.219ZM29.6 115.656C29.6 116.992 29.8031 118.285 30.2094 119.535C30.6156 120.777 31.2211 121.883 32.0258 122.852C32.8383 123.812 33.8266 124.539 34.9906 125.031L33.2328 127.422C32.0453 126.883 31.0219 126.113 30.1625 125.113C29.3109 124.105 28.6352 122.922 28.1352 121.562C27.6352 123.047 26.9398 124.336 26.0492 125.43C25.1664 126.523 24.0922 127.359 22.8266 127.938L21.0219 125.453C22.225 124.945 23.2406 124.191 24.0688 123.191C24.8969 122.184 25.518 121.031 25.932 119.734C26.3539 118.438 26.5688 117.078 26.5766 115.656V112.469H29.6V115.656ZM39.1625 132.203H36.1391V110.828H39.1625V132.203ZM58.7684 113.148C58.7684 114.117 58.745 114.996 58.6981 115.785C58.6512 116.566 58.538 117.43 58.3583 118.375H61.0887V120.719H41.5653V118.375H55.3466C55.5028 117.594 55.6122 116.863 55.6747 116.184C55.7372 115.496 55.7762 114.789 55.7919 114.062H43.9559V111.695H58.7684V113.148ZM58.6747 128.195H46.7684V129.695H59.2606V131.992H43.7919V125.945H55.7216V124.539H43.7684V122.219H58.6747V128.195ZM79.6869 132.203H76.6634V110.828H79.6869V132.203ZM68.1087 112.328C69.1791 112.328 70.1361 112.641 70.9798 113.266C71.8314 113.891 72.4994 114.777 72.9837 115.926C73.4681 117.074 73.7103 118.406 73.7103 119.922C73.7103 121.453 73.4681 122.797 72.9837 123.953C72.4994 125.102 71.8314 125.988 70.9798 126.613C70.1361 127.23 69.1791 127.539 68.1087 127.539C67.015 127.539 66.0384 127.23 65.1791 126.613C64.3197 125.988 63.6478 125.102 63.1634 123.953C62.6869 122.797 62.4525 121.453 62.4603 119.922C62.4525 118.406 62.6869 117.074 63.1634 115.926C63.6478 114.777 64.3197 113.891 65.1791 113.266C66.0384 112.641 67.015 112.328 68.1087 112.328ZM68.1087 115.023C67.5541 115.023 67.0658 115.215 66.6439 115.598C66.2298 115.973 65.9095 116.527 65.683 117.262C65.4564 117.996 65.3431 118.883 65.3431 119.922C65.3431 120.969 65.4564 121.859 65.683 122.594C65.9095 123.328 66.2298 123.883 66.6439 124.258C67.0658 124.633 67.5541 124.82 68.1087 124.82C68.6556 124.82 69.1322 124.633 69.5384 124.258C69.9447 123.875 70.2611 123.316 70.4877 122.582C70.7142 121.848 70.8275 120.961 70.8275 119.922C70.8275 118.891 70.7142 118.008 70.4877 117.273C70.2611 116.531 69.9408 115.973 69.5267 115.598C69.1205 115.215 68.6478 115.023 68.1087 115.023ZM92.8831 112.328C93.9612 112.328 94.9261 112.641 95.7776 113.266C96.6292 113.883 97.2933 114.766 97.7698 115.914C98.2542 117.062 98.5003 118.398 98.5081 119.922C98.5003 121.453 98.2542 122.797 97.7698 123.953C97.2933 125.102 96.6292 125.988 95.7776 126.613C94.9339 127.23 93.9691 127.539 92.8831 127.539C91.7972 127.539 90.8245 127.23 89.9651 126.613C89.1136 125.988 88.4456 125.102 87.9612 123.953C87.4847 122.797 87.2503 121.453 87.2581 119.922C87.2503 118.406 87.4847 117.074 87.9612 115.926C88.4456 114.777 89.1136 113.891 89.9651 113.266C90.8245 112.641 91.7972 112.328 92.8831 112.328ZM92.8831 115.023C92.3362 115.023 91.8558 115.215 91.4417 115.598C91.0276 115.973 90.7073 116.527 90.4808 117.262C90.2542 117.996 90.1409 118.883 90.1409 119.922C90.1409 120.961 90.2542 121.852 90.4808 122.594C90.7073 123.328 91.0276 123.883 91.4417 124.258C91.8558 124.633 92.3362 124.82 92.8831 124.82C93.4378 124.82 93.9222 124.633 94.3362 124.258C94.7503 123.883 95.0706 123.328 95.2972 122.594C95.5237 121.859 95.6409 120.969 95.6487 119.922C95.6409 118.883 95.5237 117.996 95.2972 117.262C95.0706 116.527 94.7503 115.973 94.3362 115.598C93.9222 115.215 93.4378 115.023 92.8831 115.023ZM103.969 118.867H107.11V121.352H103.969V132.156H100.969V110.828H103.969V118.867ZM125.263 123.672H122.263V110.828H125.263V123.672ZM125.263 132.156H122.263V127H110.591V124.609H125.263V132.156ZM120.013 114.461H115.723C115.731 115.328 115.919 116.168 116.286 116.98C116.661 117.793 117.227 118.52 117.985 119.16C118.751 119.801 119.692 120.289 120.809 120.625L119.286 122.945C118.122 122.586 117.114 122.043 116.263 121.316C115.411 120.59 114.739 119.73 114.247 118.738C113.747 119.816 113.059 120.754 112.184 121.551C111.309 122.34 110.263 122.938 109.044 123.344L107.497 121.023C108.622 120.656 109.571 120.133 110.345 119.453C111.126 118.766 111.708 117.992 112.091 117.133C112.473 116.266 112.669 115.375 112.677 114.461H108.294V112.07H120.013V114.461ZM150.412 114.109H144.529C144.654 114.734 144.99 115.328 145.537 115.891C146.084 116.445 146.845 116.926 147.822 117.332C148.799 117.73 149.959 118 151.302 118.141L150.201 120.508C148.248 120.281 146.603 119.785 145.267 119.02C143.939 118.246 142.99 117.289 142.42 116.148C141.842 117.289 140.888 118.246 139.56 119.02C138.24 119.785 136.607 120.281 134.662 120.508L133.584 118.141C134.927 118 136.084 117.727 137.052 117.32C138.029 116.914 138.787 116.434 139.326 115.879C139.873 115.316 140.209 114.727 140.334 114.109H134.498V111.719H150.412V114.109ZM149.967 131.781H135.06V125.641H138.06V129.391H149.967V131.781ZM152.17 124.352H132.717V121.938H140.943V118.984H143.896V121.938H152.17V124.352ZM171.588 132.156H168.729V121.469H166.924V131.172H164.088V125.066L162.401 127.305C160.541 126.328 159.201 124.66 158.381 122.301C157.623 125.02 156.291 126.945 154.385 128.078L152.533 125.781C154.057 124.922 155.158 123.648 155.838 121.961C156.526 120.266 156.869 118.312 156.869 116.102V115.422H153.26V113.031H163.033V115.422H159.776V116.102C159.776 118.125 160.115 119.922 160.795 121.492C161.483 123.062 162.58 124.238 164.088 125.02V111.133H166.924V119.031H168.729V110.828H171.588V132.156ZM190.069 119.172H193.21V121.633H190.069V132.156H187.116V110.828H190.069V119.172ZM185.663 116.406H173.124V114.016H177.952V111.156H180.952V114.016H185.663V116.406ZM179.452 117.602C180.483 117.602 181.409 117.82 182.229 118.258C183.057 118.688 183.706 119.289 184.175 120.062C184.651 120.836 184.889 121.711 184.889 122.688C184.889 123.664 184.651 124.539 184.175 125.312C183.706 126.086 183.057 126.691 182.229 127.129C181.409 127.559 180.483 127.773 179.452 127.773C178.413 127.773 177.479 127.559 176.651 127.129C175.823 126.691 175.171 126.086 174.694 125.312C174.225 124.539 173.991 123.664 173.991 122.688C173.991 121.711 174.225 120.836 174.694 120.062C175.171 119.289 175.823 118.688 176.651 118.258C177.479 117.82 178.413 117.602 179.452 117.602ZM179.452 120.016C178.952 120.023 178.503 120.137 178.104 120.355C177.714 120.574 177.405 120.883 177.178 121.281C176.96 121.68 176.85 122.148 176.85 122.688C176.85 123.234 176.96 123.707 177.178 124.105C177.405 124.504 177.714 124.809 178.104 125.02C178.503 125.223 178.952 125.32 179.452 125.312C179.952 125.32 180.397 125.223 180.788 125.02C181.178 124.809 181.483 124.504 181.702 124.105C181.921 123.707 182.03 123.234 182.03 122.688C182.03 122.148 181.921 121.68 181.702 121.281C181.483 120.883 181.178 120.574 180.788 120.355C180.397 120.137 179.952 120.023 179.452 120.016ZM201.777 116.641C201.777 117.82 201.976 118.98 202.374 120.121C202.78 121.254 203.386 122.273 204.191 123.18C204.995 124.086 205.972 124.781 207.12 125.266L205.503 127.609C204.277 127.094 203.226 126.336 202.351 125.336C201.476 124.336 200.788 123.168 200.288 121.832C199.796 123.285 199.105 124.562 198.214 125.664C197.323 126.758 196.269 127.586 195.05 128.148L193.339 125.781C194.48 125.273 195.452 124.535 196.257 123.566C197.07 122.598 197.679 121.512 198.085 120.309C198.499 119.098 198.706 117.875 198.706 116.641V115.328H194.183V112.891H206.23V115.328H201.777V116.641ZM211.362 132.156H208.339V110.828H211.362V132.156ZM224.699 111.859C225.777 111.859 226.75 112.074 227.617 112.504C228.492 112.926 229.176 113.516 229.668 114.273C230.168 115.031 230.418 115.883 230.418 116.828C230.418 117.789 230.168 118.648 229.668 119.406C229.176 120.164 228.496 120.758 227.629 121.188C226.762 121.609 225.785 121.82 224.699 121.82C223.621 121.82 222.645 121.609 221.77 121.188C220.895 120.758 220.207 120.164 219.707 119.406C219.207 118.648 218.957 117.789 218.957 116.828C218.957 115.883 219.207 115.031 219.707 114.273C220.215 113.516 220.902 112.926 221.77 112.504C222.645 112.074 223.621 111.859 224.699 111.859ZM224.699 114.32C224.16 114.312 223.676 114.41 223.246 114.613C222.817 114.816 222.481 115.109 222.238 115.492C221.996 115.875 221.879 116.32 221.887 116.828C221.879 117.344 221.996 117.793 222.238 118.176C222.481 118.559 222.817 118.855 223.246 119.066C223.676 119.277 224.16 119.383 224.699 119.383C225.238 119.383 225.719 119.281 226.141 119.078C226.57 118.867 226.906 118.57 227.149 118.188C227.391 117.797 227.512 117.344 227.512 116.828C227.512 116.32 227.391 115.875 227.149 115.492C226.906 115.109 226.57 114.816 226.141 114.613C225.719 114.41 225.238 114.312 224.699 114.32ZM235.738 115.258H238.621V117.719H235.738V121.352H232.738V110.828H235.738V115.258ZM223.645 129.156C224.902 129.078 226.035 128.875 227.043 128.547L227.465 130.867C226.637 131.164 225.801 131.359 224.957 131.453C224.121 131.547 223.106 131.594 221.91 131.594H220.738V123.414H223.645V129.156ZM237.473 125.641H226.738V123.438H230.676V121.938H233.582V123.438H237.473V125.641ZM232.082 126.133C232.887 126.133 233.602 126.258 234.227 126.508C234.86 126.758 235.352 127.113 235.703 127.574C236.055 128.027 236.231 128.555 236.231 129.156C236.231 129.766 236.055 130.297 235.703 130.75C235.352 131.203 234.863 131.551 234.238 131.793C233.613 132.035 232.895 132.156 232.082 132.156C231.262 132.156 230.539 132.035 229.914 131.793C229.297 131.551 228.817 131.203 228.473 130.75C228.137 130.297 227.973 129.766 227.981 129.156C227.973 128.555 228.137 128.027 228.473 127.574C228.817 127.113 229.301 126.758 229.926 126.508C230.551 126.258 231.27 126.133 232.082 126.133ZM232.082 128.195C231.645 128.211 231.289 128.301 231.016 128.465C230.75 128.629 230.621 128.859 230.629 129.156C230.621 129.461 230.75 129.699 231.016 129.871C231.289 130.035 231.645 130.117 232.082 130.117C232.52 130.117 232.875 130.035 233.149 129.871C233.422 129.699 233.559 129.461 233.559 129.156C233.559 128.859 233.422 128.629 233.149 128.465C232.875 128.301 232.52 128.211 232.082 128.195ZM244.305 125.43H253.094V123.625H256.071V131.922H241.352V123.625H244.305V125.43ZM253.094 129.578V127.703H244.305V129.578H253.094ZM258.532 122.547H239.079V120.133H258.532V122.547ZM250.352 111.766C250.352 112.5 250.63 113.227 251.184 113.945C251.747 114.656 252.571 115.277 253.657 115.809C254.751 116.332 256.055 116.68 257.571 116.852L256.516 119.195C254.712 118.969 253.149 118.5 251.829 117.789C250.516 117.078 249.508 116.199 248.805 115.152C248.102 116.199 247.09 117.078 245.77 117.789C244.458 118.5 242.907 118.969 241.118 119.195L240.04 116.852C241.563 116.672 242.868 116.324 243.954 115.809C245.047 115.285 245.872 114.668 246.426 113.957C246.989 113.246 247.274 112.516 247.282 111.766V111.039H250.352V111.766ZM277.271 132.156H274.294V110.828H277.271V132.156ZM263.443 124.34C266.607 124.285 269.646 123.977 272.56 123.414L272.935 125.875C269.724 126.547 266.333 126.883 262.763 126.883H262.364H260.489V112.867H263.443V124.34ZM296.431 118.75H299.572V121.188H296.431V132.203H293.431V110.828H296.431V118.75ZM290.455 115.211H283.423V124.562C285.103 124.547 286.603 124.488 287.923 124.387C289.244 124.285 290.572 124.117 291.908 123.883L292.236 126.391C290.806 126.633 289.396 126.801 288.005 126.895C286.623 126.98 285.033 127.023 283.236 127.023H282.252H280.447V112.797H290.455V115.211ZM304.412 124.914H301.412L301.107 113.031H304.717L304.412 124.914ZM302.936 130.211C302.576 130.211 302.244 130.121 301.94 129.941C301.635 129.762 301.393 129.523 301.213 129.227C301.041 128.922 300.959 128.594 300.967 128.242C300.959 127.891 301.041 127.566 301.213 127.27C301.393 126.973 301.635 126.738 301.94 126.566C302.244 126.387 302.576 126.297 302.936 126.297C303.272 126.297 303.588 126.387 303.885 126.566C304.19 126.738 304.432 126.973 304.611 127.27C304.791 127.566 304.881 127.891 304.881 128.242C304.881 128.594 304.791 128.922 304.611 129.227C304.432 129.523 304.19 129.762 303.885 129.941C303.588 130.121 303.272 130.211 302.936 130.211Z" fill="#CCCCCC"/>
</svg>
