<svg width="19" height="19" viewBox="0 0 19 19" fill="none" xmlns="http://www.w3.org/2000/svg">
<path fill-rule="evenodd" clip-rule="evenodd" d="M9.53826 18.1283C14.3531 18.1283 18.2562 14.2251 18.2562 9.41033C18.2562 4.59554 14.3531 0.692383 9.53826 0.692383C4.72347 0.692383 0.820312 4.59554 0.820312 9.41033C0.820312 14.2251 4.72347 18.1283 9.53826 18.1283ZM5.36719 13.3272V11.7911C5.36719 11.7203 5.39245 11.6597 5.44299 11.6092L10.956 6.09614L12.851 7.99108L7.33288 13.5041C7.2874 13.5546 7.22171 13.5799 7.15601 13.5799H5.61985C5.47836 13.5799 5.36719 13.4687 5.36719 13.3272ZM14.3164 5.81316C14.5134 6.01023 14.5134 6.32859 14.3164 6.52566L13.3916 7.45039L11.4967 5.55545L12.4214 4.63072C12.6185 4.43364 12.9369 4.43364 13.1339 4.63072L14.3164 5.81316Z" fill="#666666"/>
</svg>
