<svg width="20" height="22" viewBox="0 0 20 22" fill="none" xmlns="http://www.w3.org/2000/svg">
<path fill-rule="evenodd" clip-rule="evenodd" d="M1.39857 -6.66909e-08C2.17098 -1.03523e-07 2.79714 0.62616 2.79714 1.39857L2.79714 20.0461C2.79714 20.8185 2.17098 21.4447 1.39857 21.4447C0.626161 21.4447 9.92736e-07 20.8185 9.55904e-07 20.0461L6.66909e-08 1.39857C2.98586e-08 0.62616 0.62616 -2.98586e-08 1.39857 -6.66909e-08Z" fill="#808080"/>
<path fill-rule="evenodd" clip-rule="evenodd" d="M6.02472 8.29427C4.58095 9.59092 4.58095 11.8534 6.02472 13.1501L13.9563 20.2734C16.0571 22.1602 19.4001 20.6692 19.4001 17.8455L19.4001 3.59882C19.4001 0.775148 16.0571 -0.715799 13.9563 1.17093L6.02472 8.29427ZM7.89372 11.069C7.68747 10.8838 7.68747 10.5606 7.89372 10.3753L15.8253 3.25198C16.1254 2.98245 16.603 3.19545 16.603 3.59882L16.603 17.8455C16.603 18.2489 16.1254 18.4619 15.8253 18.1924L7.89372 11.069Z" fill="#808080"/>
</svg>
