<svg width="217" height="130" viewBox="0 0 217 130" fill="none" xmlns="http://www.w3.org/2000/svg">
<rect width="217" height="130" rx="10" fill="#333333" fill-opacity="0.3"/>
<path d="M128.25 52.3333H124.875V45.381C124.875 35.7867 117.315 28 108 28C98.685 28 91.125 35.7867 91.125 45.381V52.3333H87.75C84.0375 52.3333 81 55.4619 81 59.2857V94.0476C81 97.8714 84.0375 101 87.75 101H128.25C131.963 101 135 97.8714 135 94.0476V59.2857C135 55.4619 131.963 52.3333 128.25 52.3333ZM108 83.619C104.288 83.619 101.25 80.4905 101.25 76.6667C101.25 72.8429 104.288 69.7143 108 69.7143C111.713 69.7143 114.75 72.8429 114.75 76.6667C114.75 80.4905 111.713 83.619 108 83.619ZM97.875 52.3333V45.381C97.875 39.6105 102.398 34.9524 108 34.9524C113.603 34.9524 118.125 39.6105 118.125 45.381V52.3333H97.875Z" fill="#F5F8FF"/>
</svg>
