<svg width="14" height="14" viewBox="0 0 14 14" fill="none" xmlns="http://www.w3.org/2000/svg">
<path d="M6.9987 0.333008C3.31203 0.333008 0.332031 3.31301 0.332031 6.99967C0.332031 10.6863 3.31203 13.6663 6.9987 13.6663C10.6854 13.6663 13.6654 10.6863 13.6654 6.99967C13.6654 3.31301 10.6854 0.333008 6.9987 0.333008ZM10.1367 9.19501C10.3974 9.45567 10.3974 9.87701 10.1367 10.1377C10.0067 10.2677 9.83603 10.333 9.66536 10.333C9.4947 10.333 9.32403 10.2677 9.19403 10.1377L6.9987 7.94234L4.80336 10.1377C4.67336 10.2677 4.5027 10.333 4.33203 10.333C4.16136 10.333 3.9907 10.2677 3.8607 10.1377C3.60003 9.87701 3.60003 9.45567 3.8607 9.19501L6.05603 6.99967L3.8607 4.80434C3.60003 4.54367 3.60003 4.12234 3.8607 3.86167C4.12136 3.60101 4.5427 3.60101 4.80336 3.86167L6.9987 6.05701L9.19403 3.86167C9.4547 3.60101 9.87603 3.60101 10.1367 3.86167C10.3974 4.12234 10.3974 4.54367 10.1367 4.80434L7.94136 6.99967L10.1367 9.19501Z" fill="#FF4F4F"/>
</svg>
