<svg width="75" height="90" viewBox="0 0 75 90" fill="none" xmlns="http://www.w3.org/2000/svg">
<path d="M7.87704 71.625C6.43954 71.625 5.11141 71.2656 3.89266 70.5469C2.67391 69.8281 1.70516 68.875 0.986413 67.6875C0.298913 66.4688 -0.029212 65.1562 0.00203804 63.75C-0.029212 62.3438 0.298913 61.0469 0.986413 59.8594C1.70516 58.6719 2.67391 57.7344 3.89266 57.0469C5.11141 56.3281 6.43954 55.9688 7.87704 55.9688C9.22079 55.9688 10.4864 56.3281 11.6739 57.0469C12.8927 57.7344 13.8614 58.6719 14.5802 59.8594C15.2989 61.0469 15.6583 62.3438 15.6583 63.75C15.6583 65.1562 15.2989 66.4688 14.5802 67.6875C13.8614 68.875 12.8927 69.8281 11.6739 70.5469C10.4864 71.2656 9.22079 71.625 7.87704 71.625ZM7.87704 35.9062C6.43954 35.9062 5.11141 35.5469 3.89266 34.8281C2.67391 34.1094 1.70516 33.1562 0.986413 31.9688C0.298913 30.75 -0.029212 29.4375 0.00203804 28.0312C-0.029212 26.625 0.298913 25.3281 0.986413 24.1406C1.70516 22.9531 2.67391 22.0156 3.89266 21.3281C5.11141 20.6094 6.43954 20.25 7.87704 20.25C9.22079 20.25 10.4864 20.6094 11.6739 21.3281C12.8927 22.0156 13.8614 22.9531 14.5802 24.1406C15.2989 25.3281 15.6583 26.625 15.6583 28.0312C15.6583 29.4375 15.2989 30.75 14.5802 31.9688C13.8614 33.1562 12.8927 34.1094 11.6739 34.8281C10.4864 35.5469 9.22079 35.9062 7.87704 35.9062Z" fill="#CCCCCC"/>
<path d="M47.162 44.9062C47.162 36.375 48.3964 28.4062 50.8652 21C53.3339 13.5625 56.912 6.5625 61.5995 0H74.8183C72.5995 3.21875 70.4745 7.3125 68.4433 12.2812C66.412 17.2188 64.7558 22.5625 63.4745 28.3125C62.2245 34.0312 61.5995 39.5625 61.5995 44.9062C61.5995 50.2812 62.2245 55.8438 63.4745 61.5938C64.7558 67.3125 66.412 72.6562 68.4433 77.625C70.4745 82.5938 72.5995 86.6875 74.8183 89.9062H61.5995C51.9745 76.375 47.162 61.375 47.162 44.9062Z" fill="#CCCCCC"/>
</svg>
