<svg width="23" height="22" viewBox="0 0 23 22" fill="none" xmlns="http://www.w3.org/2000/svg">
<circle cx="11.5" cy="11" r="11" fill="#F5F8FF"/>
<mask id="mask0_4483_6056" style="mask-type:luminance" maskUnits="userSpaceOnUse" x="7" y="6" width="10" height="10">
<path fill-rule="evenodd" clip-rule="evenodd" d="M7.5 6.5H16.0903V15.9698H7.5V6.5Z" fill="white"/>
</mask>
<g mask="url(#mask0_4483_6056)">
<path fill-rule="evenodd" clip-rule="evenodd" d="M13.0551 7.50832L8.34764 13.3958C8.26214 13.5028 8.23064 13.6408 8.26214 13.7733L8.60264 15.2158L10.1221 15.1968C10.2666 15.1953 10.4001 15.1308 10.4886 15.0208C12.0971 13.0083 15.1636 9.17132 15.2506 9.05882C15.3326 8.92582 15.3646 8.73782 15.3216 8.55682C15.2776 8.37132 15.1621 8.21382 14.9956 8.11332C14.9601 8.08882 14.1176 7.43482 14.0916 7.41432C13.7746 7.16032 13.3121 7.20432 13.0551 7.50832ZM8.30664 15.9698C8.13314 15.9698 7.98214 15.8508 7.94164 15.6813L7.53214 13.9458C7.44764 13.5863 7.53164 13.2153 7.76214 12.9273L12.4721 7.03632C12.4741 7.03432 12.4756 7.03182 12.4776 7.02982C12.9941 6.41232 13.9281 6.32132 14.5581 6.82682C14.5831 6.84632 15.4196 7.49632 15.4196 7.49632C15.7236 7.67732 15.9611 8.00082 16.0511 8.38382C16.1406 8.76282 16.0756 9.15382 15.8671 9.48432C15.8516 9.50882 15.8381 9.52982 11.0741 15.4898C10.8446 15.7758 10.5006 15.9423 10.1311 15.9468L8.31164 15.9698H8.30664Z" fill="#669BFF"/>
</g>
<path fill-rule="evenodd" clip-rule="evenodd" d="M14.6117 10.8427C14.5317 10.8427 14.4517 10.8172 14.3832 10.7652L11.6572 8.67118C11.4932 8.54518 11.4622 8.31018 11.5882 8.14518C11.7147 7.98118 11.9497 7.95068 12.1142 8.07668L14.8407 10.1702C15.0047 10.2962 15.0357 10.5317 14.9092 10.6962C14.8357 10.7922 14.7242 10.8427 14.6117 10.8427Z" fill="#669BFF"/>
</svg>
