<svg width="23" height="22" viewBox="0 0 23 22" fill="none" xmlns="http://www.w3.org/2000/svg">
<circle cx="11.5" cy="11" r="11" fill="#F5F8FF"/>
<path d="M11.5 6C11.6658 6 11.8247 6.06585 11.9419 6.18306C12.0592 6.30027 12.125 6.45924 12.125 6.625V10.375H15.875C16.0408 10.375 16.1997 10.4408 16.3169 10.5581C16.4342 10.6753 16.5 10.8342 16.5 11C16.5 11.1658 16.4342 11.3247 16.3169 11.4419C16.1997 11.5592 16.0408 11.625 15.875 11.625H12.125V15.375C12.125 15.5408 12.0592 15.6997 11.9419 15.8169C11.8247 15.9342 11.6658 16 11.5 16C11.3342 16 11.1753 15.9342 11.0581 15.8169C10.9408 15.6997 10.875 15.5408 10.875 15.375V11.625H7.125C6.95924 11.625 6.80027 11.5592 6.68306 11.4419C6.56585 11.3247 6.5 11.1658 6.5 11C6.5 10.8342 6.56585 10.6753 6.68306 10.5581C6.80027 10.4408 6.95924 10.375 7.125 10.375H10.875V6.625C10.875 6.45924 10.9408 6.30027 11.0581 6.18306C11.1753 6.06585 11.3342 6 11.5 6Z" fill="#669BFF"/>
</svg>
