<svg width="10" height="16" viewBox="0 0 10 16" fill="none" xmlns="http://www.w3.org/2000/svg">
<path d="M1.74998 5.25006L4.99998 2.00007L8.24998 5.25006C8.57498 5.57506 9.09165 5.57506 9.41665 5.25006C9.74165 4.92507 9.74165 4.4084 9.41665 4.0834L5.59165 0.258398C5.26665 -0.0666018 4.74165 -0.0666018 4.41665 0.258398L0.583318 4.0834C0.258318 4.4084 0.258318 4.92506 0.583318 5.25006C0.908317 5.57506 1.42498 5.57506 1.74998 5.25006ZM1.74998 10.7501L4.99998 14.0001L8.24998 10.7501C8.57498 10.4251 9.09165 10.4251 9.41665 10.7501C9.74165 11.0751 9.74165 11.5917 9.41665 11.9167L5.59165 15.7417C5.26665 16.0667 4.74165 16.0667 4.41665 15.7417L0.583317 11.9167C0.258317 11.5917 0.258317 11.0751 0.583317 10.7501C0.908317 10.4251 1.42498 10.4251 1.74998 10.7501Z" fill="#999999"/>
</svg>
