<svg width="13" height="13" viewBox="0 0 13 13" fill="none" xmlns="http://www.w3.org/2000/svg">
<path d="M5.62611 9.59833C5.90778 9.88 6.36278 9.88 6.64444 9.59833L9.23722 7.00556C9.51889 6.72389 9.51889 6.26889 9.23722 5.98722L6.64444 3.39444C6.36278 3.11278 5.90778 3.11278 5.62611 3.39444C5.34444 3.67611 5.34444 4.13111 5.62611 4.41278L6.98389 5.77778H0.722222C0.325 5.77778 0 6.10278 0 6.5C0 6.89722 0.325 7.22222 0.722222 7.22222H6.98389L5.62611 8.58C5.34444 8.86167 5.35167 9.32389 5.62611 9.59833ZM11.5556 0H1.44444C0.642778 0 0 0.65 0 1.44444V3.61111C0 4.00833 0.325 4.33333 0.722222 4.33333C1.11944 4.33333 1.44444 4.00833 1.44444 3.61111V2.16667C1.44444 1.76944 1.76944 1.44444 2.16667 1.44444H10.8333C11.2306 1.44444 11.5556 1.76944 11.5556 2.16667V10.8333C11.5556 11.2306 11.2306 11.5556 10.8333 11.5556H2.16667C1.76944 11.5556 1.44444 11.2306 1.44444 10.8333V9.38889C1.44444 8.99167 1.11944 8.66667 0.722222 8.66667C0.325 8.66667 0 8.99167 0 9.38889V11.5556C0 12.35 0.65 13 1.44444 13H11.5556C12.35 13 13 12.35 13 11.5556V1.44444C13 0.65 12.35 0 11.5556 0Z" fill="#666666"/>
</svg>
