<svg width="33" height="32" viewBox="0 0 33 32" fill="none" xmlns="http://www.w3.org/2000/svg">
<g clip-path="url(#clip0_714_8755)">
<path d="M16.4531 32C25.2897 32 32.4531 24.8366 32.4531 16C32.4531 7.16344 25.2897 0 16.4531 0C7.61657 0 0.453125 7.16344 0.453125 16C0.453125 24.8366 7.61657 32 16.4531 32Z" fill="#D22215"/>
<path d="M24.5054 10.6465C24.0256 10.7929 23.5252 10.9187 23.0242 11.044C19.4686 11.7982 14.7279 9.75111 12.6807 13.0912C10.9734 15.747 10.4344 19.0704 8.49219 21.4451L18.8661 31.819C25.7705 30.774 31.2269 25.3168 32.2709 18.4121L24.5054 10.6465Z" fill="#A81411"/>
<path d="M21.8062 9.52148H11.1001C8.99962 9.52148 7.29688 11.2243 7.29688 13.3247V18.6767C7.29688 20.7772 8.99969 22.48 11.1001 22.48H21.8062C23.9067 22.48 25.6095 20.7772 25.6095 18.6767V13.3247C25.6095 11.2243 23.9067 9.52148 21.8062 9.52148ZM19.2341 16.2611L14.2266 18.6494C14.0931 18.713 13.9389 18.6159 13.9389 18.468V13.5422C13.9389 13.3922 14.0971 13.295 14.2307 13.3628L19.2383 15.9004C19.3874 15.9758 19.3847 16.1894 19.2341 16.2611Z" fill="white"/>
<path d="M21.8046 9.52148H16.3438V14.4343L19.2367 15.9002C19.3857 15.9757 19.383 16.1892 19.2324 16.261L16.3438 17.6388V22.48H21.8046C23.9051 22.48 25.6078 20.7772 25.6078 18.6767V13.3247C25.6078 11.2243 23.905 9.52148 21.8046 9.52148Z" fill="#D1D1D1"/>
</g>
<defs>
<clipPath id="clip0_714_8755">
<rect width="32" height="32" fill="white" transform="translate(0.453125)"/>
</clipPath>
</defs>
</svg>
